<?xml version="1.0" encoding="UTF-8"?>
<svg id="Layer_2" data-name="Layer 2" xmlns="http://www.w3.org/2000/svg" viewBox="0 0 164 1137.3">
  <defs>
    <style>
      .cls-1 {
        fill: #0071bc;
      }

      .cls-2 {
        fill: #1b1464;
      }

      .cls-3 {
        opacity: .17;
      }
    </style>
  </defs>
  <g id="Layer_1-2" data-name="Layer 1">
    <g id="bubble_calbum_2" data-name="bubble calbum 2">
      <g id="bubble">
        <g class="cls-3">
          <circle class="cls-1" cx="82" cy="429.25" r="82"/>
        </g>
        <path class="cls-2" d="M82.36,351.29c42.79,0,77.6,34.81,77.6,77.6s-34.81,77.6-77.6,77.6S4.76,471.69,4.76,428.9s34.81-77.6,77.6-77.6m0-4.04C37.27,347.25,.71,383.81,.71,428.9s36.55,81.64,81.64,81.64,81.64-36.55,81.64-81.64-36.55-81.64-81.64-81.64h0Z"/>
        <circle class="cls-2" cx="38.5" cy="393.6" r="11.41"/>
      </g>
      <g id="bubble-2" data-name="bubble">
        <g class="cls-3">
          <circle class="cls-1" cx="110.52" cy="869.91" r="47.06"/>
        </g>
        <path class="cls-2" d="M110.73,825.17c24.56,0,44.54,19.98,44.54,44.54s-19.98,44.54-44.54,44.54-44.54-19.98-44.54-44.54,19.98-44.54,44.54-44.54m0-2.32c-25.88,0-46.86,20.98-46.86,46.86s20.98,46.86,46.86,46.86,46.86-20.98,46.86-46.86-20.98-46.86-46.86-46.86h0Z"/>
        <circle class="cls-2" cx="85.56" cy="849.45" r="6.55"/>
      </g>
      <g id="bubble-3" data-name="bubble">
        <g class="cls-3">
          <circle class="cls-1" cx="56.33" cy="99.11" r="47.06"/>
        </g>
        <path class="cls-2" d="M56.54,54.37c24.56,0,44.54,19.98,44.54,44.54s-19.98,44.54-44.54,44.54S12,123.47,12,98.91,31.98,54.37,56.54,54.37m0-2.32c-25.88,0-46.86,20.98-46.86,46.86s20.98,46.86,46.86,46.86,46.86-20.98,46.86-46.86-20.98-46.86-46.86-46.86h0Z"/>
        <circle class="cls-2" cx="31.37" cy="78.65" r="6.55"/>
      </g>
      <g id="bubble-4" data-name="bubble">
        <g class="cls-3">
          <circle class="cls-1" cx="24.24" cy="558.31" r="24.24"/>
        </g>
        <path class="cls-2" d="M24.35,535.26c12.65,0,22.94,10.29,22.94,22.94s-10.29,22.94-22.94,22.94-22.94-10.29-22.94-22.94,10.29-22.94,22.94-22.94m0-1.2c-13.33,0-24.14,10.81-24.14,24.14s10.81,24.14,24.14,24.14,24.14-10.81,24.14-24.14-10.81-24.14-24.14-24.14h0Z"/>
        <circle class="cls-2" cx="11.38" cy="547.77" r="3.37"/>
      </g>
      <g id="bubble-5" data-name="bubble">
        <g class="cls-3">
          <circle class="cls-1" cx="119.08" cy="347.25" r="24.24"/>
        </g>
        <path class="cls-2" d="M119.18,324.2c12.65,0,22.94,10.29,22.94,22.94s-10.29,22.94-22.94,22.94-22.94-10.29-22.94-22.94,10.29-22.94,22.94-22.94m0-1.2c-13.33,0-24.14,10.81-24.14,24.14s10.81,24.14,24.14,24.14,24.14-10.81,24.14-24.14-10.81-24.14-24.14-24.14h0Z"/>
        <circle class="cls-2" cx="106.22" cy="336.71" r="3.37"/>
      </g>
      <g id="bubble-6" data-name="bubble">
        <g class="cls-3">
          <circle class="cls-1" cx="27.1" cy="313.03" r="24.24"/>
        </g>
        <path class="cls-2" d="M27.2,289.98c12.65,0,22.94,10.29,22.94,22.94s-10.29,22.94-22.94,22.94-22.94-10.29-22.94-22.94,10.29-22.94,22.94-22.94m0-1.2c-13.33,0-24.14,10.81-24.14,24.14s10.81,24.14,24.14,24.14,24.14-10.81,24.14-24.14-10.81-24.14-24.14-24.14h0Z"/>
        <circle class="cls-2" cx="14.24" cy="302.49" r="3.37"/>
      </g>
      <g id="bubble-7" data-name="bubble">
        <g class="cls-3">
          <circle class="cls-1" cx="72.73" cy="636.03" r="42.78"/>
        </g>
        <path class="cls-2" d="M72.92,595.36c22.32,0,40.49,18.16,40.49,40.49s-18.16,40.49-40.49,40.49-40.49-18.16-40.49-40.49,18.16-40.49,40.49-40.49m0-2.11c-23.53,0-42.6,19.07-42.6,42.6s19.07,42.6,42.6,42.6,42.6-19.07,42.6-42.6-19.07-42.6-42.6-42.6h0Z"/>
        <circle class="cls-2" cx="50.04" cy="617.43" r="5.95"/>
      </g>
      <g id="bubble-8" data-name="bubble">
        <g class="cls-3">
          <circle class="cls-1" cx="110.52" cy="1018.94" r="42.78"/>
        </g>
        <path class="cls-2" d="M110.71,978.27c22.32,0,40.49,18.16,40.49,40.49s-18.16,40.49-40.49,40.49-40.49-18.16-40.49-40.49,18.16-40.49,40.49-40.49m0-2.11c-23.53,0-42.6,19.07-42.6,42.6s19.07,42.6,42.6,42.6,42.6-19.07,42.6-42.6-19.07-42.6-42.6-42.6h0Z"/>
        <circle class="cls-2" cx="87.83" cy="1000.34" r="5.95"/>
      </g>
      <g id="bubble-9" data-name="bubble">
        <g class="cls-3">
          <circle class="cls-1" cx="110.52" cy="248.14" r="42.78"/>
        </g>
        <path class="cls-2" d="M110.71,207.47c22.32,0,40.49,18.16,40.49,40.49s-18.16,40.49-40.49,40.49-40.49-18.16-40.49-40.49,18.16-40.49,40.49-40.49m0-2.11c-23.53,0-42.6,19.07-42.6,42.6s19.07,42.6,42.6,42.6,42.6-19.07,42.6-42.6-19.07-42.6-42.6-42.6h0Z"/>
        <circle class="cls-2" cx="87.83" cy="229.54" r="5.95"/>
      </g>
      <g id="bubble-10" data-name="bubble">
        <g class="cls-3">
          <circle class="cls-1" cx="76.3" cy="534.07" r="12.83"/>
        </g>
        <path class="cls-2" d="M76.35,521.87c6.7,0,12.15,5.45,12.15,12.15s-5.45,12.15-12.15,12.15-12.15-5.45-12.15-12.15,5.45-12.15,12.15-12.15m0-.63c-7.06,0-12.78,5.72-12.78,12.78s5.72,12.78,12.78,12.78,12.78-5.72,12.78-12.78-5.72-12.78-12.78-12.78h0Z"/>
        <circle class="cls-2" cx="69.49" cy="528.49" r="1.79"/>
      </g>
      <g id="bubble-11" data-name="bubble">
        <g class="cls-3">
          <circle class="cls-1" cx="56.33" cy="192.52" r="12.83"/>
        </g>
        <path class="cls-2" d="M56.39,180.32c6.7,0,12.15,5.45,12.15,12.15s-5.45,12.15-12.15,12.15-12.15-5.45-12.15-12.15,5.45-12.15,12.15-12.15m0-.63c-7.06,0-12.78,5.72-12.78,12.78s5.72,12.78,12.78,12.78,12.78-5.72,12.78-12.78-5.72-12.78-12.78-12.78h0Z"/>
        <circle class="cls-2" cx="49.52" cy="186.94" r="1.79"/>
      </g>
      <g id="bubble-12" data-name="bubble">
        <g class="cls-3">
          <circle class="cls-1" cx="24.24" cy="725.17" r="12.83"/>
        </g>
        <path class="cls-2" d="M24.3,712.96c6.7,0,12.15,5.45,12.15,12.15s-5.45,12.15-12.15,12.15-12.15-5.45-12.15-12.15,5.45-12.15,12.15-12.15m0-.63c-7.06,0-12.78,5.72-12.78,12.78s5.72,12.78,12.78,12.78,12.78-5.72,12.78-12.78-5.72-12.78-12.78-12.78h0Z"/>
        <circle class="cls-2" cx="17.44" cy="719.58" r="1.79"/>
      </g>
      <g id="bubble-13" data-name="bubble">
        <g class="cls-3">
          <circle class="cls-1" cx="56.33" cy="963.32" r="12.83"/>
        </g>
        <path class="cls-2" d="M56.39,951.12c6.7,0,12.15,5.45,12.15,12.15s-5.45,12.15-12.15,12.15-12.15-5.45-12.15-12.15,5.45-12.15,12.15-12.15m0-.63c-7.06,0-12.78,5.72-12.78,12.78s5.72,12.78,12.78,12.78,12.78-5.72,12.78-12.78-5.72-12.78-12.78-12.78h0Z"/>
        <circle class="cls-2" cx="49.52" cy="957.74" r="1.79"/>
      </g>
      <g id="bubble-14" data-name="bubble">
        <g class="cls-3">
          <circle class="cls-1" cx="37.08" cy="665.98" r="12.83"/>
        </g>
        <path class="cls-2" d="M37.13,653.78c6.7,0,12.15,5.45,12.15,12.15s-5.45,12.15-12.15,12.15-12.15-5.45-12.15-12.15,5.45-12.15,12.15-12.15m0-.63c-7.06,0-12.78,5.72-12.78,12.78s5.72,12.78,12.78,12.78,12.78-5.72,12.78-12.78-5.72-12.78-12.78-12.78h0Z"/>
        <circle class="cls-2" cx="30.27" cy="660.4" r="1.79"/>
      </g>
      <g id="bubble-15" data-name="bubble">
        <g class="cls-3">
          <circle class="cls-1" cx="56.33" cy="782.21" r="21.39"/>
        </g>
        <path class="cls-2" d="M56.42,761.87c11.16,0,20.24,9.08,20.24,20.24s-9.08,20.24-20.24,20.24-20.24-9.08-20.24-20.24,9.08-20.24,20.24-20.24m0-1.05c-11.76,0-21.3,9.54-21.3,21.3s9.54,21.3,21.3,21.3,21.3-9.54,21.3-21.3-9.54-21.3-21.3-21.3h0Z"/>
        <circle class="cls-2" cx="44.98" cy="772.91" r="2.98"/>
      </g>
      <g id="bubble-16" data-name="bubble">
        <g class="cls-3">
          <circle class="cls-1" cx="97.69" cy="714.47" r="21.39"/>
        </g>
        <path class="cls-2" d="M97.78,694.13c11.16,0,20.24,9.08,20.24,20.24s-9.08,20.24-20.24,20.24-20.24-9.08-20.24-20.24,9.08-20.24,20.24-20.24m0-1.05c-11.76,0-21.3,9.54-21.3,21.3s9.54,21.3,21.3,21.3,21.3-9.54,21.3-21.3-9.54-21.3-21.3-21.3h0Z"/>
        <circle class="cls-2" cx="86.34" cy="705.17" r="2.98"/>
      </g>
      <g id="bubble-17" data-name="bubble">
        <g class="cls-3">
          <circle class="cls-1" cx="79.15" cy="1115.91" r="21.39"/>
        </g>
        <path class="cls-2" d="M79.24,1095.58c11.16,0,20.24,9.08,20.24,20.24s-9.08,20.24-20.24,20.24-20.24-9.08-20.24-20.24,9.08-20.24,20.24-20.24m0-1.05c-11.76,0-21.3,9.54-21.3,21.3s9.54,21.3,21.3,21.3,21.3-9.54,21.3-21.3-9.54-21.3-21.3-21.3h0Z"/>
        <circle class="cls-2" cx="67.8" cy="1106.61" r="2.98"/>
      </g>
      <g id="bubble-18" data-name="bubble">
        <g class="cls-3">
          <circle class="cls-1" cx="140.47" cy="21.39" r="21.39"/>
        </g>
        <path class="cls-2" d="M140.56,1.05c11.16,0,20.24,9.08,20.24,20.24s-9.08,20.24-20.24,20.24-20.24-9.08-20.24-20.24S129.4,1.05,140.56,1.05m0-1.05c-11.76,0-21.3,9.54-21.3,21.3s9.54,21.3,21.3,21.3,21.3-9.54,21.3-21.3S152.33,0,140.56,0h0Z"/>
        <circle class="cls-2" cx="129.12" cy="12.09" r="2.98"/>
      </g>
    </g>
  </g>
</svg>