<?xml version="1.0" encoding="UTF-8"?>
<svg id="Layer_2" data-name="Layer 2" xmlns="http://www.w3.org/2000/svg" viewBox="0 0 116 364.14">
  <defs>
    <style>
      .cls-1 {
        fill: #0071bc;
      }

      .cls-2 {
        fill: #1b1464;
      }

      .cls-3 {
        opacity: .17;
      }
    </style>
  </defs>
  <g id="Layer_1-2" data-name="Layer 1">
    <g id="bubble_calbum_1" data-name="bubble calbum 1">
      <g id="bubble">
        <g class="cls-3">
          <circle class="cls-1" cx="58" cy="99.36" r="58"/>
        </g>
        <path class="cls-2" d="M58.25,44.22c30.27,0,54.89,24.62,54.89,54.89s-24.62,54.89-54.89,54.89S3.36,129.37,3.36,99.1,27.99,44.22,58.25,44.22m0-2.86C26.36,41.36,.5,67.21,.5,99.1s25.85,57.75,57.75,57.75,57.75-25.85,57.75-57.75-25.85-57.75-57.75-57.75h0Z"/>
        <circle class="cls-2" cx="27.23" cy="74.14" r="8.07"/>
      </g>
      <g id="bubble-2" data-name="bubble">
        <g class="cls-3">
          <circle class="cls-1" cx="17.15" cy="190.64" r="17.15"/>
        </g>
        <path class="cls-2" d="M17.22,174.34c8.95,0,16.23,7.28,16.23,16.23s-7.28,16.23-16.23,16.23S.99,199.52,.99,190.57s7.28-16.23,16.23-16.23m0-.85c-9.43,0-17.07,7.64-17.07,17.07s7.64,17.07,17.07,17.07,17.07-7.64,17.07-17.07-7.64-17.07-17.07-17.07h0Z"/>
        <circle class="cls-2" cx="8.05" cy="183.19" r="2.39"/>
      </g>
      <g id="bubble-3" data-name="bubble">
        <g class="cls-3">
          <circle class="cls-1" cx="87.25" cy="151.3" r="17.15"/>
        </g>
        <path class="cls-2" d="M87.33,135c8.95,0,16.23,7.28,16.23,16.23s-7.28,16.23-16.23,16.23-16.23-7.28-16.23-16.23,7.28-16.23,16.23-16.23m0-.85c-9.43,0-17.07,7.64-17.07,17.07s7.64,17.07,17.07,17.07,17.07-7.64,17.07-17.07-7.64-17.07-17.07-17.07h0Z"/>
        <circle class="cls-2" cx="78.16" cy="143.85" r="2.39"/>
      </g>
      <g id="bubble-4" data-name="bubble">
        <g class="cls-3">
          <circle class="cls-1" cx="19.17" cy="17.15" r="17.15"/>
        </g>
        <path class="cls-2" d="M19.24,.85c8.95,0,16.23,7.28,16.23,16.23s-7.28,16.23-16.23,16.23S3.01,26.02,3.01,17.07,10.29,.85,19.24,.85m0-.85C9.81,0,2.17,7.64,2.17,17.07s7.64,17.07,17.07,17.07,17.07-7.64,17.07-17.07S28.67,0,19.24,0h0Z"/>
        <circle class="cls-2" cx="10.07" cy="9.69" r="2.39"/>
      </g>
      <g id="bubble-5" data-name="bubble">
        <g class="cls-3">
          <circle class="cls-1" cx="51.44" cy="245.62" r="30.26"/>
        </g>
        <path class="cls-2" d="M51.58,216.85c15.79,0,28.64,12.85,28.64,28.64s-12.85,28.64-28.64,28.64-28.64-12.85-28.64-28.64,12.85-28.64,28.64-28.64m0-1.49c-16.64,0-30.13,13.49-30.13,30.13s13.49,30.13,30.13,30.13,30.13-13.49,30.13-30.13-13.49-30.13-30.13-30.13h0Z"/>
        <circle class="cls-2" cx="35.39" cy="232.46" r="4.21"/>
      </g>
      <g id="bubble-6" data-name="bubble">
        <g class="cls-3">
          <circle class="cls-1" cx="53.97" cy="173.5" r="9.08"/>
        </g>
        <path class="cls-2" d="M54,164.86c4.74,0,8.59,3.85,8.59,8.59s-3.85,8.59-8.59,8.59-8.59-3.85-8.59-8.59,3.85-8.59,8.59-8.59m0-.45c-4.99,0-9.04,4.05-9.04,9.04s4.05,9.04,9.04,9.04,9.04-4.05,9.04-9.04-4.05-9.04-9.04-9.04h0Z"/>
        <circle class="cls-2" cx="49.15" cy="169.55" r="1.26"/>
      </g>
      <g id="bubble-7" data-name="bubble">
        <g class="cls-3">
          <circle class="cls-1" cx="17.15" cy="308.66" r="9.08"/>
        </g>
        <path class="cls-2" d="M17.19,300.03c4.74,0,8.59,3.85,8.59,8.59s-3.85,8.59-8.59,8.59-8.59-3.85-8.59-8.59,3.85-8.59,8.59-8.59m0-.45c-4.99,0-9.04,4.05-9.04,9.04s4.05,9.04,9.04,9.04,9.04-4.05,9.04-9.04-4.05-9.04-9.04-9.04h0Z"/>
        <circle class="cls-2" cx="12.33" cy="304.71" r="1.26"/>
      </g>
      <g id="bubble-8" data-name="bubble">
        <g class="cls-3">
          <circle class="cls-1" cx="26.23" cy="266.8" r="9.08"/>
        </g>
        <path class="cls-2" d="M26.27,258.17c4.74,0,8.59,3.85,8.59,8.59s-3.85,8.59-8.59,8.59-8.59-3.85-8.59-8.59,3.85-8.59,8.59-8.59m0-.45c-4.99,0-9.04,4.05-9.04,9.04s4.05,9.04,9.04,9.04,9.04-4.05,9.04-9.04-4.05-9.04-9.04-9.04h0Z"/>
        <circle class="cls-2" cx="21.41" cy="262.85" r="1.26"/>
      </g>
      <g id="bubble-9" data-name="bubble">
        <g class="cls-3">
          <circle class="cls-1" cx="39.84" cy="349.01" r="15.13"/>
        </g>
        <path class="cls-2" d="M39.91,334.62c7.9,0,14.32,6.42,14.32,14.32s-6.42,14.32-14.32,14.32-14.32-6.42-14.32-14.32,6.42-14.32,14.32-14.32m0-.75c-8.32,0-15.06,6.74-15.06,15.06s6.74,15.06,15.06,15.06,15.06-6.74,15.06-15.06-6.74-15.06-15.06-15.06h0Z"/>
        <circle class="cls-2" cx="31.82" cy="342.43" r="2.11"/>
      </g>
    </g>
  </g>
</svg>