<?xml version="1.0" encoding="UTF-8"?>
<svg id="Layer_2" data-name="Layer 2" xmlns="http://www.w3.org/2000/svg" viewBox="0 0 352.07 199.64">
  <defs>
    <style>
      .cls-1 {
        fill: #1b1464;
      }
    </style>
  </defs>
  <g id="Layer_1-2" data-name="Layer 1">
    <path class="cls-1" opacity='.3' d="M3.32,133.98c-.13-.92-.29-1.83-.4-2.75-.53-4.53-1.08-9.07-1.55-13.61-.38-3.72-.39-7.5-1.04-11.17-1-5.68,.43-11,1.83-16.34,1.16-4.44,2.76-8.77,3.95-13.2,.3-1.1-.36-2.42-.36-3.64,0-1.92,.19-3.85,.3-5.86,4.9,.04,8.9-.36,12.05,3.98,1.6,2.21,5.18,3,7.88,4.42,.35,.19,.88,.2,1.09,.47,3.45,4.46,8.53,5.93,13.54,7.72,6.83,2.44,13.51,5.3,20.27,7.94,.61,.24,1.34,.2,2.73,.38-.62-1.49-.73-2.87-1.46-3.36-6.23-4.23-9.21-10.97-13.16-16.92-2.22-3.34-3.87-7.11-5.46-10.82-1.37-3.21-2.14-6.41-5.62-8.53-3.72-2.25-4.23-8.4-1.74-12.16,5.17-7.83,11.33-14.87,19.37-19.69,8.21-4.92,16.87-8.75,26.79-9.75,11.36-1.15,22.58-3.59,33.87-5.46,1.23-.2,2.48-.33,3.72-.49,8.36-1.12,16.71-2.25,25.07-3.35,1.13-.15,2.28-.18,3.42-.26,6.23-.44,12.46-.88,18.69-1.32,.62-.04,1.25-.24,1.86-.22,12.35,.51,24.71,1.02,37.06,1.56,3.61,.16,7.22,.4,10.82,.61,2.18,.13,4.39,.1,6.54,.42,12.23,1.84,24.09,5.13,35.59,9.67,1.58,.62,2.78,2.14,4.28,3.03,2.17,1.29,4.36,3.07,6.73,3.42,3.81,.58,7.13,1.84,9.67,4.57,4.81,5.18,9.6,10.4,13.94,15.97,1.46,1.87,1.5,4.83,2.23,7.28,.76,2.56,.9,5.67,2.48,7.57,7.63,9.16,11.76,19.55,12.43,31.39,.02,.27,.21,.53,.4,1.01,1.1-1,2.07-1.88,3.15-2.86,4.09,2.79,7.46,5.69,6.11,11.44-1.06,4.52,.42,8.19,4.1,11.35,4.42,3.8,7.43,8.68,8.58,14.57,.67,3.42,3.44,4.93,6.19,6.52,3.64,2.11,7.43,4.12,10.61,6.82,3.93,3.33,2.38,10.1-2.83,12.39-2.58,1.13-5.63,1.22-8.47,1.75-6.31,1.17-12.65,2.2-18.92,3.56-2.21,.48-4.21,1.82-6.36,2.62-8.08,3-15.51,7.05-22.32,12.42-7.55,5.95-16.44,9.48-25.43,12.63-6.83,2.4-12.64,5.87-15.94,12.69-.36,.75-1.56,1.18-2.45,1.57-.65,.28-1.43,.23-2.15,.34-.6,.09-1.2,.2-2,.33l1.11,2.69c-5.26,2.86-10.3,3.46-15.22-.52-.97-.78-2.11-1.35-3.15-2.05-5.25-3.58-10.64-4.69-17.31-4.2-13.69,.99-27.53,1-41.24,.19-14.81-.88-29.33-.71-43.69,3.47-3.02,.88-6.39,.7-9.61,.77-14.8,.31-29.22-2.98-43.8-4.77-5.12-.63-9.26-3.2-12.89-6.6-4.86-4.57-9.6-9.27-14.27-14.04-3.59-3.67-3.41-6.8,0-11.18,.77-.99,.81-2.54,1.28-3.8,1.13-3.07,1.83-6.43,3.58-9.1,3.43-5.22,7.63-9.93,11.15-15.1,1.29-1.89,1.55-4.47,2.29-6.73-2.08,.62-4.58,.73-6.17,1.98-2.98,2.37-5.64,5.23-8.04,8.21-2.69,3.33-4.95,6.79-6.56,11.05-2.95,7.81-8.74,13.66-17.28,15.94-2.19,.58-3.59-.2-4.89-2.21-3.88-6-8.06-11.82-12.12-17.71-.96-2.32-1.91-4.64-2.87-6.95Z"/>
  </g>
</svg>