<?xml version="1.0" encoding="UTF-8"?>
<svg id="Layer_2" data-name="Layer 2" xmlns="http://www.w3.org/2000/svg" viewBox="0 0 365.73 276.14">
  <defs>
    <style>
      .cls-1 {
        fill: #1b1464;
        
      }
    </style>
  </defs>
  <g id="Layer_1-2" data-name="Layer 1">
    <path class="cls-1" opacity='.3'  d="M8.19,162.49c-1.64-.91-3.29-1.66-4.74-2.69-1.11-.79-2.12-1.85-2.88-2.98-1.19-1.79-.45-3.41,1.64-3.87,.96-.21,1.98-.25,2.97-.2,6.96,.36,13.91,.23,20.84-.54,11.44-1.27,22.39-4.14,32.25-10.31,12.81-8.01,20.47-19.67,23.95-34.22,.55-2.29,.9-4.62,1.3-6.94,1.04-6,4.06-10.96,8.12-15.35,1.35-1.46,2.82-2.84,4.33-4.14,.9-.78,1.56-1.63,2.04-2.73,7.21-16.49,18.21-30.07,32.08-41.38,15.87-12.95,34-21.55,53.52-27.39,12.47-3.73,25.2-6.18,38.12-7.71C233.34,.66,244.98-.02,256.66,0c5.68,0,11.35,.42,16.79,2.29,1.2,.41,2.39,.92,3.51,1.53,5.03,2.74,6.91,7.18,5.44,12.73-1.17,4.41-3.5,8.23-6.32,11.74-8.81,10.97-19.5,19.66-32.14,25.87-1.81,.89-3.78,1.47-5.73,2.22,.26,.21,.52,.42,.79,.63,5.48,4.27,8.05,9.98,8.25,16.83,.16,5.33-1.22,10.35-3.24,15.23-.21,.51-.48,.93,.07,1.49,6.53,6.7,11.13,14.66,15.11,23.04,2.02,4.26,4.06,8.5,6.25,12.68,5.74,10.99,14.72,18.31,25.92,23.38,4.09,1.85,7.77,1.68,11.71,.28,4.98-1.77,9.43-4.51,13.69-7.59,8.17-5.91,15.58-12.64,21.73-20.67,2-2.61,3.76-5.35,4.53-8.63,.34-1.44,1.39-1.99,2.75-1.37,1.18,.53,2.34,1.25,3.29,2.13,4.23,3.92,7.11,8.81,9.56,13.96,4.98,10.45,7.23,21.45,7.13,33.07-.07,7.9-.77,15.63-3.1,23.18-2.53,8.2-6.07,15.9-11.76,22.44-1.21,1.4-2.7,2.63-4.25,3.63-1.99,1.29-3.06,.56-3.89-1.66-.84-2.26-1.87-4.52-3.25-6.48-5.79-8.27-13.18-14.98-21.19-21.03-4.28-3.23-8.76-6.18-13.79-8.14-1.81-.7-3.75-1.06-5.62-1.63-.9-.27-1.61-.07-2.28,.55-3.21,2.99-6.43,5.97-9.71,9.01,2.6,2.66,4.6,5.39,6.02,8.51,.54,1.2,1.16,2.4,1.46,3.66,.43,1.88,1.51,3.26,2.74,4.66,5.08,5.78,9.7,11.89,13.15,18.81,1.37,2.76,2.44,5.63,2.86,8.72,.65,4.8-1.41,8.53-5.91,10.31-4.22,1.67-8.66,1.75-13.12,1.57-18.44-.74-34.26-7.95-48.29-19.58-.91-.76-.91-.76-1.79-.2,7.19,9.93,17.29,16.04,27.84,21.82-2.34-.28-4.7-.43-7.02-.86-9.81-1.8-18.67-5.97-27.11-11.14-1.67-1.02-3.28-2.13-4.99-3.11,3.57,6.29,9.16,10.51,15,14.49-5.62-1.74-11.07-3.87-16.29-6.55-2.52-1.3-4.94-2.78-7.44-4.12-.42-.22-1.08-.31-1.51-.15-10.3,4.08-20.9,7-31.88,8.47-8.31,1.11-16.64,1.39-25,.7-.23-.02-.47,0-.89,0,.42,.74,.78,1.39,1.17,2.03,5.27,8.56,12.11,15.76,19.55,22.42,5.99,5.36,12.35,10.25,18.97,14.98-2.34-.51-4.69-.95-7.01-1.55-10.66-2.78-20.4-7.62-29.67-13.47-8.84-5.59-17.08-11.96-24.68-19.16-.08-.08-.19-.13-.39-.11,4.57,11.51,13.02,19.97,21.99,28.1-3.03-1.58-6.09-3.11-9.09-4.75-13.04-7.12-25.24-15.41-35.74-26.01-7.05-7.12-13.17-14.95-17.07-24.26-1.04-2.48-2.52-4.33-4.48-6.12-2.17-1.97-4.49-2.93-7.34-3.46-30.05-5.65-57.34-17.5-81.37-36.55-1.06-.84-2.09-1.74-3.1-2.64-1.16-1.04-1.1-1.9,.2-2.79,.49-.34,1.02-.6,1.53-.89Z"/>
  </g>
</svg>