<?xml version="1.0" encoding="UTF-8"?>
<svg id="Layer_2" data-name="Layer 2" xmlns="http://www.w3.org/2000/svg" viewBox="0 0 399.28 148.05">
  <defs>
    <style>
      .cls-1 {
        fill: #1b1464;
      }
    </style>
  </defs>
  <g id="Layer_1-2" data-name="Layer 1">
    <path class="cls-1" opacity='.3' d="M0,32.99c14.72-4.79,29.69-5.89,44.57-1.47,7.64,2.27,14.96,5.81,22.16,9.31,8.65,4.21,16.87,9.31,25.58,13.4,5.64,2.65,11.85,2.98,18.01,.56-.6-.12-1.2-.29-1.81-.35-5.44-.58-5.7-.93-2.71-5.3,3.92-5.75,7.86-11.5,12.15-16.96,1.22-1.55,3.59-2.36,5.58-3.12,10.2-3.88,20.27-8.24,30.74-11.24,7.96-2.28,16.41-2.37,24.57,.47,3.71,1.29,7.11,1.13,10.16-2.06,1.02-1.06,3.33-.79,4.96-1.39,3.24-1.18,6.56-2.25,9.56-3.89,3.34-1.82,6.41-2.31,9.75-.31,.44,.26,1.1,.15,1.61,.2,.16-.3,.36-.48,.34-.65-.12-1.49-.28-2.98-.42-4.47,1.55,.4,3.13,.72,4.65,1.23,1.51,.5,2.96,1.19,4.73,1.92,.79-4.9,3.89-4.11,7.16-2.97,2.09,.73,3.56,.31,3.98-2.18,.48-2.83,2.22-3.12,4.55-2.1,2.49,1.09,4.99,2.13,7.54,3.21q1.49-5.79,6.98-3.16c1.96,.93,3.95,1.79,5.89,2.67,2.85-4.3,2.84-4.12,7.11-1.35,9.79,6.36,18.92,14.25,30.34,17.39,21.07,5.79,39.59,17.1,59.22,26.01,9.3,4.22,18.47,8.72,27.62,13.28,1.13,.56,2.44,2.3,2.34,3.37-.12,1.3-1.47,2.69-2.62,3.64-5.01,4.12-10.14,8.1-15,12.74,3.59-.82,7.19-1.61,10.78-2.46,3.03-.71,6.02-1.59,9.06-2.19,3.59-.72,7.11-.55,10.17,1.84v4.15c-.97,4.77-4.73,6.52-8.77,7.62-22.56,6.1-45.15,12.09-67.74,18.1-11.13,2.96-22.25,5.93-33.4,8.77-1.79,.46-2.4,1.18-2.5,3-.5,8.87-1.09,17.73-1.75,26.58-.26,3.51-1.12,4.01-4.02,2.18-6-3.79-12.04-7.55-17.78-11.71-5.92-4.29-5.25-11.18,1.12-15.49,1.77-1.2,3.41-2.6,4.9-4.65-3.25,.17-6.5,.29-9.74,.51-13.61,.91-27.23,1.8-40.8-.24-5.68-.85-11.21-2.64-16.88-3.49-2.67-.4-5.79-.22-8.24,.81-8.68,3.65-17.04,8.06-25.73,11.66-13.47,5.57-27.61,8.02-42.21,7.7-.72-.02-1.43-.38-3.12-.86,1.78-1.19,2.78-1.99,3.89-2.58,3.97-2.1,6.25-6.52,4.7-10.76-1.43-3.93-3.72-7.53-5.53-11.33-1.19-2.49-2.28-5.04-3.28-7.61-2.71-6.97-2.74-7.3-11.58-7.52-6.55-.17-12.73,2-18.38,5.3-6.83,3.99-13.38,8.48-20.32,12.26-12.21,6.66-25.26,11.22-39.04,13.26-6.83,1.01-13.77,1.28-20.67,1.8-1.12,.08-2.27-.31-3.68-1.18,10.35-2.21,18.26-7.26,22.66-17.21-1.25-1.13-2.56-2.31-3.98-3.59,.55-.64,.82-1.22,1.27-1.45,4.66-2.38,6.01-6.21,5.19-11.16-1.4-8.48-2.62-17-4.18-25.46-.18-.95-1.99-1.72-3.16-2.34-1.62-.86-3.36-1.5-5.05-2.23,1.63-.89,3.21-1.86,4.89-2.64,1.13-.53,2.39-.79,4.27-1.38-1.5-1.07-2.59-1.8-3.63-2.6-.85-.66-1.64-1.39-2.46-2.09,.85-.69,1.7-1.38,2.55-2.07,.6-.49,1.18-1,2.04-1.72-3.65-1.08-7-2.06-10.34-3.05-.04-.41-.08-.82-.12-1.24,2.02-.55,4.03-1.1,6.23-1.7-1.84-3.22-5.02-3.95-8.15-4.43-5.56-.85-11.16-1.43-16.75-2.12,0-.46,0-.92,0-1.38Z"/>
  </g>
</svg>