<?xml version="1.0" encoding="UTF-8"?>
<svg id="Layer_2" data-name="Layer 2" xmlns="http://www.w3.org/2000/svg" viewBox="0 0 436.24 234.44">
  <defs>
    <style>
      .cls-1 {
        fill: #1b1464;
      }
    </style>
  </defs>
  <g id="Layer_1-2" data-name="Layer 1">
    <path class="cls-1" opacity='.3' d="M0,117.63c3.84-2.53,7.18-5.26,9.51-9.62,4.44-8.28,11.65-13.83,20.54-16.94,1.3-.46,2.99,.2,4.5,.34-.85,1.55-1.33,3.61-2.62,4.56-4.51,3.33-9.32,6.26-13.98,9.4-.49,.33-.69,1.07-1.54,2.45,4.64-2.79,8.44-5.07,12.25-7.33,.97-.58,1.97-1.4,3.01-1.5,1.23-.11,2.52,.45,3.79,.72-.54,1.13-.81,2.58-1.67,3.34-3.83,3.35-7.87,6.45-11.75,9.75-1.02,.87-1.71,2.13-2.02,3.92,7.17-3.8,14.31-7.64,21.51-11.39,5.27-2.75,10.53-5.53,15.95-7.97,1.13-.51,2.91,.43,4.39,.7-.8,1.13-1.34,2.69-2.43,3.32-7.8,4.59-15.83,8.8-23.53,13.55-3.05,1.88-5.42,4.86-8.14,7.36,2.18,3.05,4.22,3.24,7.02,1.38,4.02-2.66,8.23-5.03,12.5-7.27,1.14-.6,2.77-.24,4.17-.33-.55,1.4-.74,3.16-1.72,4.13-3.09,3.07-6.47,5.84-9.65,8.64,.39,.74,.54,1.2,.64,1.19,5.9-.54,8.21,5.13,12.57,7.32,4.78,2.4,9.11,5.72,13.1,8.3,2.49-.84,4.57-1.54,6.66-2.24-.32,2.01-.64,4.01-.93,5.85,2.93-1.37,6.33-2.96,10.22-4.78-.21-4.71-.44-10.04-.7-15.9-2.61,.22-4.96,.62-7.29,.54-1.3-.05-2.57-.89-3.86-1.37,1.05-1.01,1.94-2.55,3.17-2.9,2.27-.64,4.73-.57,7.36-.83v-5.31c-6.08,.21-11.35,2.35-16.37,5.29-1.1,.64-2.03,1.72-3.2,2.06-1.32,.39-2.81,.19-4.23,.25,.52-1.4,.64-3.43,1.64-4.09,4.93-3.25,10.11-6.14,15.08-10.2-3.69,.7-7.36,1.55-11.08,2.04-1.54,.2-3.19-.34-4.79-.55,.95-1.2,1.65-3.02,2.88-3.51,5.89-2.34,11.93-4.32,18.18-6.52-3.09-1.48-3.61-2.85-.99-5.97,1.45-1.73,.26-5.67,.26-9.52-5.22,1.25-9.69,2.42-14.22,3.34-1.16,.24-2.48-.31-3.73-.5,.46-1.19,.58-2.85,1.44-3.5,4.66-3.49,9.51-6.73,15.1-10.61-11.02,1.93-20.52,4.92-27.68,13.05-1.22,1.39-2.32,2.93-3.75,4.05-.89,.7-2.3,.73-3.48,1.06,.04-1.28-.44-3.05,.22-3.76,3.65-3.94,7.17-8.23,11.52-11.27,6.67-4.67,13.99-8.43,21.31-12.74-.38-7.64,5.59-12.58,14.14-11.06,3.34,.59,6.72,1.01,9.65,1.44,.36-1.83,.34-4.78,1.11-5.01,1.68-.49,3.77,.41,4.6,.55,4.08-5.09,7.48-10.25,11.78-14.51,10.79-10.67,21.92-21,33.07-31.3,2.68-2.48,5.71-4.91,9.03-6.25,2.79-1.12,6.35-1.22,9.33-.61,1.65,.34,3.86,3.06,3.88,4.74,.03,1.64-2.07,4.12-3.81,4.83-4.7,1.92-9.72,3.04-14.59,4.58-1.6,.51-3.4,.97-4.61,2.02-11.4,10.01-22.82,20.02-33.91,30.36-2.01,1.88-2.57,5.3-3.81,8.02,2.97,.43,6.16,1.76,8.88,1.13,9.65-2.25,19.04-5.6,28.7-7.76,25.63-5.71,51.3-5.22,76.73,1.22,13.51,3.42,25.76,9.89,36.3,18.94,6.37,5.47,12.61,4.17,19.35,2.15,.4-.12,.82-.33,1.11-.62,6.57-6.55,15.33-9.35,23.29-13.49,2.91-1.51,6.36-2.26,9.65-2.71,3.83-.52,8.16,.83,9.54-3.09,3.45,1.11,6.24,2.01,9.03,2.89,4.9,1.55,4.61-3.22,6.74-6.08,.72,1.34,1.21,2.21,1.65,3.1,1.84,3.66,5.68,4.72,8.76,1.95,1.99-1.79,3.02-1.05,5.05-.14,2.68,1.2,5.87,1.39,8.88,1.69,2.3,.22,4.27,0,5.36,2.94,.54,1.46,2.96,2.22,4.92,3.57-.63,.77-1.39,1.69-2.41,2.95,1.79,.29,3.27,.52,4.64,.74,1.09,1.8,2.14,3.53,3.51,5.81-5.24,1.54-5.88,7.17-8.91,10.92-2.69,3.33-7.05,5.73-11.14,7.4-6.1,2.49-12.6,3.97-18.93,5.88,.1,.52,.2,1.04,.3,1.56,1.89-.19,3.85-.14,5.67-.61,16.47-4.23,32.86-8.77,49.38-12.75,8.06-1.94,16.34-1.56,24.49,.2,3.75,.81,5.74,3.53,5.88,7.56,.04,1.03,.83,2.06,1.34,3.05,2.31,4.47,5.56,8.71,6.72,13.46,1.2,4.95,.54,10.39,.4,15.6-.07,2.77-.16,5.81-1.32,8.21-2.5,5.19-3.72,10.83-7.39,15.74-2.13,2.85-2.98,6.39-6.89,7.73-.57,.19-.54,1.81-1.09,2.54-.51,.68-1.49,1.55-2.17,1.47-19.79-2.3-39.28-5.9-57.66-14.03-10.65-4.71-20.21-1.34-29.42,4.08-3.17,1.86-5.91,4.53-9.2,6.08-4.49,2.11-9.37,3.39-13.98,5.28-1.08,.44-2.66,2.22-2.44,2.84,1.13,3.25,2.04,7.07,4.36,9.29,4.83,4.6,10.5,8.32,15.93,12.49-2.04,2.51-4.42,5.74-7.13,8.66-1.62,1.74-9.41,.38-11.4-2.24-4.51-5.95-8.9-12.03-12.88-18.35-2.73-4.34-4.27-5.15-9.28-3.85-4.39,1.14-7.22,3.78-9.68,7.41-7.4,10.93-14.3,22.31-22.79,32.34-5.45,6.43-12.92,11.5-20.25,15.89-22.54,13.49-46.35,12.6-70.53,4.88-18.83-6.01-35.12-16.92-51.93-26.81-2.44-1.44-4.79-2.03-7.8-2.17-3.99-.19-8.61-1.64-11.67-4.13-9.34-7.6-18.07-15.94-27.01-24.03-.84-.76-1.38-1.84-2.25-2.55-10.03-8.26-16.11-20.02-25.49-28.8-7.89-7.39-15.17-15.92-26.64-18.12C5.33,121.75,2.65,121.43,0,121.04c0-1.14,0-2.27,0-3.41Zm81.31,40.16c.51-2.99,.88-5.22,1.49-8.77-3.06,1.47-5.03,2.41-7.54,3.61,2.27,1.93,3.86,3.28,6.06,5.15Z"/>
  </g>
</svg>