<?xml version="1.0" encoding="UTF-8"?>
<svg id="Layer_2" data-name="Layer 2" xmlns="http://www.w3.org/2000/svg" xmlns:xlink="http://www.w3.org/1999/xlink" viewBox="0 0 2138 1205">
  <defs>
    <style>
      .cls-1 {
        fill: url(#radial-gradient-39);
      }

      .cls-2 {
        fill: url(#radial-gradient-46);
      }

      .cls-3 {
        fill: url(#Tin_Radial-2);
        filter: url(#drop-shadow-1);
      }

      .cls-4 {
        fill: url(#radial-gradient-7);
      }

      .cls-5 {
        fill: url(#radial-gradient-34);
      }

      .cls-6 {
        fill: url(#radial-gradient-10);
      }

      .cls-7 {
        fill: url(#Aluminum);
      }

      .cls-8 {
        fill: url(#radial-gradient-31);
      }

      .cls-9 {
        font-size: 96.38px;
      }

      .cls-10 {
        fill: url(#radial-gradient-28);
      }

      .cls-11 {
        fill: url(#radial-gradient-16);
      }

      .cls-12 {
        fill: url(#radial-gradient-20);
      }

      .cls-13 {
        fill: url(#radial-gradient-21);
      }

      .cls-14 {
        fill: url(#radial-gradient-8);
      }

      .cls-15 {
        fill: url(#radial-gradient-5);
      }

      .cls-16 {
        fill: url(#radial-gradient-4);
      }

      .cls-17 {
        fill: url(#radial-gradient-40);
      }

      .cls-18 {
        fill: url(#radial-gradient-32);
      }

      .cls-19 {
        fill: url(#radial-gradient-25);
      }

      .cls-20 {
        fill: url(#radial-gradient-26);
      }

      .cls-21 {
        fill: url(#radial-gradient-22);
      }

      .cls-22 {
        fill: url(#radial-gradient-6);
      }

      .cls-23 {
        fill: url(#radial-gradient-19);
      }

      .cls-24 {
        fill: url(#radial-gradient-12);
      }

      .cls-25 {
        fill: url(#radial-gradient-41);
      }

      .cls-26 {
        fill: url(#radial-gradient-35);
      }

      .cls-27 {
        fill: url(#radial-gradient);
      }

      .cls-28 {
        fill: gray;
      }

      .cls-29 {
        fill: url(#radial-gradient-27);
      }

      .cls-30 {
        fill: url(#radial-gradient-13);
      }

      .cls-31 {
        fill: #652e10;
      }

      .cls-32 {
        fill: url(#White_Black);
      }

      .cls-33 {
        fill: #bd743f;
      }

      .cls-34 {
        fill: url(#radial-gradient-43);
      }

      .cls-35 {
        fill: url(#radial-gradient-30);
      }

      .cls-36 {
        fill: url(#radial-gradient-24);
      }

      .cls-37 {
        font-size: 48.19px;
      }

      .cls-38 {
        fill: url(#radial-gradient-15);
      }

      .cls-39 {
        opacity: .25;
      }

      .cls-39, .cls-40 {
        fill: #fcc995;
      }

      .cls-41 {
        clip-path: url(#clippath);
      }

      .cls-42 {
        fill: url(#radial-gradient-2);
      }

      .cls-43, .cls-44 {
        fill: none;
      }

      .cls-45 {
        fill: url(#radial-gradient-38);
      }

      .cls-46 {
        fill: url(#radial-gradient-3);
      }

      .cls-47 {
        fill: url(#radial-gradient-42);
      }

      .cls-44 {
        stroke: gray;
        stroke-miterlimit: 10;
        stroke-width: 8.5px;
      }

      .cls-48 {
        fill: url(#radial-gradient-45);
      }

      .cls-49 {
        fill: url(#radial-gradient-17);
      }

      .cls-50 {
        fill: url(#radial-gradient-33);
      }

      .cls-51 {
        fill: url(#radial-gradient-14);
      }

      .cls-52 {
        fill: url(#radial-gradient-37);
      }

      .cls-53 {
        fill: url(#Tin_Radial);
      }

      .cls-54 {
        fill: url(#linear-gradient);
      }

      .cls-55 {
        fill: url(#radial-gradient-29);
      }

      .cls-56 {
        fill: url(#radial-gradient-23);
      }

      .cls-57 {
        fill: url(#radial-gradient-36);
      }

      .cls-58 {
        fill: url(#radial-gradient-11);
      }

      .cls-59 {
        fill: url(#radial-gradient-18);
      }

      .cls-60 {
        font-family: ImprintMT-Shadow, 'Imprint MT Shadow';
      }

      .cls-61 {
        fill: url(#radial-gradient-9);
      }

      .cls-62 {
        fill: url(#radial-gradient-44);
      }
    </style>
    <linearGradient id="Aluminum" x1="801.81" y1="1210.8" x2="1676.64" y2="-640.95" gradientUnits="userSpaceOnUse">
      <stop offset="0" stop-color="#bbbcbe"/>
      <stop offset=".29" stop-color="#989ca0"/>
      <stop offset=".65" stop-color="#bfbec2"/>
      <stop offset=".87" stop-color="#9ea0a4"/>
      <stop offset="1" stop-color="#a7a9ac"/>
      <stop offset="1" stop-color="#c3c6ca"/>
    </linearGradient>
    <linearGradient id="White_Black" data-name="White, Black" x1="676" y1="551" x2="1546" y2="551" gradientUnits="userSpaceOnUse">
      <stop offset="0" stop-color="#fff"/>
      <stop offset="1" stop-color="#000"/>
    </linearGradient>
    <radialGradient id="Tin_Radial" data-name="Tin Radial" cx="1111" cy="551" fx="1111" fy="551" r="880.21" gradientUnits="userSpaceOnUse">
      <stop offset="0" stop-color="#c4c6c8"/>
      <stop offset=".3" stop-color="#bcbec0"/>
      <stop offset=".66" stop-color="#a7a9ac"/>
      <stop offset="1" stop-color="#9b9da0"/>
    </radialGradient>
    <radialGradient id="radial-gradient" cx="1438.04" cy="879.31" fx="1438.04" fy="872.44" r="24.83" gradientUnits="userSpaceOnUse">
      <stop offset=".25" stop-color="#ccc"/>
      <stop offset=".36" stop-color="silver"/>
      <stop offset=".55" stop-color="#a2a2a2"/>
      <stop offset=".8" stop-color="#717171"/>
      <stop offset=".97" stop-color="#4d4d4d"/>
    </radialGradient>
    <radialGradient id="radial-gradient-2" cx="1111.04" cy="1014.31" fx="1111.04" fy="1007.44" r="24.83" xlink:href="#radial-gradient"/>
    <radialGradient id="radial-gradient-3" cx="1114.04" cy="85.31" fx="1114.04" fy="78.44" r="24.83" xlink:href="#radial-gradient"/>
    <radialGradient id="radial-gradient-4" cx="1571.04" cy="551.31" fx="1571.04" fy="544.44" xlink:href="#radial-gradient"/>
    <radialGradient id="radial-gradient-5" cx="1436.04" cy="222.31" fx="1436.04" fy="215.44" xlink:href="#radial-gradient"/>
    <radialGradient id="radial-gradient-6" cx="1893.04" cy="623.46" fx="1893.04" fy="623.46" r="11.61" xlink:href="#radial-gradient"/>
    <radialGradient id="radial-gradient-7" cx="1893.04" cy="712.06" fx="1893.04" fy="712.06" r="11.61" xlink:href="#radial-gradient"/>
    <radialGradient id="radial-gradient-8" cx="1893.04" cy="800.66" fx="1893.04" fy="800.66" r="11.61" xlink:href="#radial-gradient"/>
    <radialGradient id="radial-gradient-9" cx="1644.04" cy="575.46" fx="1644.04" fy="575.46" r="11.61" gradientTransform="translate(2423.1 -1064.98) rotate(90)" xlink:href="#radial-gradient"/>
    <radialGradient id="radial-gradient-10" cx="1644.04" cy="664.06" fx="1644.04" fy="664.06" r="11.61" gradientTransform="translate(2423.1 -1064.98) rotate(90)" xlink:href="#radial-gradient"/>
    <radialGradient id="radial-gradient-11" cx="1644.04" cy="752.66" fx="1644.04" fy="752.66" r="11.61" gradientTransform="translate(2423.1 -1064.98) rotate(90)" xlink:href="#radial-gradient"/>
    <radialGradient id="radial-gradient-12" cx="1893.04" cy="889.25" fx="1893.04" fy="889.25" r="11.61" xlink:href="#radial-gradient"/>
    <radialGradient id="radial-gradient-13" cx="1893.04" cy="977.85" fx="1893.04" fy="977.85" r="11.61" xlink:href="#radial-gradient"/>
    <radialGradient id="radial-gradient-14" cx="1893.04" cy="1066.45" fx="1893.04" fy="1066.45" r="11.61" xlink:href="#radial-gradient"/>
    <radialGradient id="radial-gradient-15" cx="1893.04" cy="856.46" fx="1893.04" fy="856.46" r="11.61" gradientTransform="translate(0 1335.38) scale(1 -1)" xlink:href="#radial-gradient"/>
    <radialGradient id="radial-gradient-16" cx="1893.04" cy="945.06" fx="1893.04" fy="945.06" r="11.61" gradientTransform="translate(0 1335.38) scale(1 -1)" xlink:href="#radial-gradient"/>
    <radialGradient id="radial-gradient-17" cx="1893.04" cy="1033.66" fx="1893.04" fy="1033.66" r="11.61" gradientTransform="translate(0 1335.38) scale(1 -1)" xlink:href="#radial-gradient"/>
    <radialGradient id="radial-gradient-18" cx="1877.04" cy="575.46" fx="1877.04" fy="575.46" r="11.61" gradientTransform="translate(2423.1 2400.37) rotate(-90) scale(1 -1)" xlink:href="#radial-gradient"/>
    <radialGradient id="radial-gradient-19" cx="1877.04" cy="664.06" fx="1877.04" fy="664.06" r="11.61" gradientTransform="translate(2423.1 2400.37) rotate(-90) scale(1 -1)" xlink:href="#radial-gradient"/>
    <radialGradient id="radial-gradient-20" cx="1877.04" cy="752.66" fx="1877.04" fy="752.66" r="11.61" gradientTransform="translate(2423.1 2400.37) rotate(-90) scale(1 -1)" xlink:href="#radial-gradient"/>
    <radialGradient id="radial-gradient-21" cx="1893.04" cy="1122.25" fx="1893.04" fy="1122.25" r="11.61" gradientTransform="translate(0 1335.38) scale(1 -1)" xlink:href="#radial-gradient"/>
    <radialGradient id="radial-gradient-22" cx="1893.04" cy="1210.85" fx="1893.04" fy="1210.85" r="11.61" gradientTransform="translate(0 1335.38) scale(1 -1)" xlink:href="#radial-gradient"/>
    <radialGradient id="radial-gradient-23" cx="1893.04" cy="1299.45" fx="1893.04" fy="1299.45" r="11.61" gradientTransform="translate(0 1335.38) scale(1 -1)" xlink:href="#radial-gradient"/>
    <radialGradient id="radial-gradient-24" cx="2047.04" cy="623.46" fx="2047.04" fy="623.46" r="11.61" gradientTransform="translate(3997.61) rotate(-180) scale(1 -1)" xlink:href="#radial-gradient"/>
    <radialGradient id="radial-gradient-25" cx="2047.04" cy="712.06" fx="2047.04" fy="712.06" r="11.61" gradientTransform="translate(3997.61) rotate(-180) scale(1 -1)" xlink:href="#radial-gradient"/>
    <radialGradient id="radial-gradient-26" cx="2047.04" cy="800.66" fx="2047.04" fy="800.66" r="11.61" gradientTransform="translate(3997.61) rotate(-180) scale(1 -1)" xlink:href="#radial-gradient"/>
    <radialGradient id="radial-gradient-27" cx="1644.04" cy="421.46" fx="1644.04" fy="421.46" r="11.61" gradientTransform="translate(1574.51 -1064.98) rotate(90) scale(1 -1)" xlink:href="#radial-gradient"/>
    <radialGradient id="radial-gradient-28" cx="1644.04" cy="510.06" fx="1644.04" fy="510.06" r="11.61" gradientTransform="translate(1574.51 -1064.98) rotate(90) scale(1 -1)" xlink:href="#radial-gradient"/>
    <radialGradient id="radial-gradient-29" cx="2047.04" cy="889.25" fx="2047.04" fy="889.25" r="11.61" gradientTransform="translate(3997.61) rotate(-180) scale(1 -1)" xlink:href="#radial-gradient"/>
    <radialGradient id="radial-gradient-30" cx="2047.04" cy="977.85" fx="2047.04" fy="977.85" r="11.61" gradientTransform="translate(3997.61) rotate(-180) scale(1 -1)" xlink:href="#radial-gradient"/>
    <radialGradient id="radial-gradient-31" cx="2047.04" cy="1066.45" fx="2047.04" fy="1066.45" r="11.61" gradientTransform="translate(3997.61) rotate(-180) scale(1 -1)" xlink:href="#radial-gradient"/>
    <radialGradient id="radial-gradient-32" cx="2047.04" cy="856.46" fx="2047.04" fy="856.46" r="11.61" gradientTransform="translate(3997.61 1335.38) rotate(-180)" xlink:href="#radial-gradient"/>
    <radialGradient id="radial-gradient-33" cx="2047.04" cy="945.06" fx="2047.04" fy="945.06" r="11.61" gradientTransform="translate(3997.61 1335.38) rotate(-180)" xlink:href="#radial-gradient"/>
    <radialGradient id="radial-gradient-34" cx="2047.04" cy="1033.66" fx="2047.04" fy="1033.66" r="11.61" gradientTransform="translate(3997.61 1335.38) rotate(-180)" xlink:href="#radial-gradient"/>
    <radialGradient id="radial-gradient-35" cx="1877.04" cy="421.46" fx="1877.04" fy="421.46" r="11.61" gradientTransform="translate(1574.51 2400.37) rotate(-90)" xlink:href="#radial-gradient"/>
    <radialGradient id="radial-gradient-36" cx="1877.04" cy="510.06" fx="1877.04" fy="510.06" r="11.61" gradientTransform="translate(1574.51 2400.37) rotate(-90)" xlink:href="#radial-gradient"/>
    <radialGradient id="radial-gradient-37" cx="2047.04" cy="1122.25" fx="2047.04" fy="1122.25" r="11.61" gradientTransform="translate(3997.61 1335.38) rotate(-180)" xlink:href="#radial-gradient"/>
    <radialGradient id="radial-gradient-38" cx="2047.04" cy="1210.85" fx="2047.04" fy="1210.85" r="11.61" gradientTransform="translate(3997.61 1335.38) rotate(-180)" xlink:href="#radial-gradient"/>
    <radialGradient id="radial-gradient-39" cx="2047.04" cy="1299.45" fx="2047.04" fy="1299.45" r="11.61" gradientTransform="translate(3997.61 1335.38) rotate(-180)" xlink:href="#radial-gradient"/>
    <radialGradient id="radial-gradient-40" cx="1642.7" cy="1865.42" fx="1642.7" fy="1865.42" r="11.61" gradientTransform="translate(2423.1 -1064.98) rotate(90)" xlink:href="#radial-gradient"/>
    <radialGradient id="radial-gradient-41" cx="1878.39" cy="1865.42" fx="1878.39" fy="1865.42" r="11.61" gradientTransform="translate(2423.1 2400.37) rotate(-90) scale(1 -1)" xlink:href="#radial-gradient"/>
    <radialGradient id="Tin_Radial-2" data-name="Tin Radial" cx="184" cy="176.28" fx="202.59" fy="83.57" r="922.63" xlink:href="#Tin_Radial"/>
    <filter id="drop-shadow-1" filterUnits="userSpaceOnUse">
      <feOffset dx="5" dy="19"/>
      <feGaussianBlur result="blur" stdDeviation="32"/>
      <feFlood flood-color="#000" flood-opacity=".37"/>
      <feComposite in2="blur" operator="in"/>
      <feComposite in="SourceGraphic"/>
    </filter>
    <radialGradient id="radial-gradient-42" cx="1447.48" cy="879.93" fx="1447.48" fy="873.07" gradientTransform="translate(-99.46 -567.54) rotate(90) scale(1 -1)" xlink:href="#radial-gradient"/>
    <radialGradient id="radial-gradient-43" cx="1580.48" cy="551.93" fx="1580.48" fy="545.07" r="24.83" gradientTransform="translate(95.54 -1028.54) rotate(90) scale(1 -1)" xlink:href="#radial-gradient"/>
    <radialGradient id="radial-gradient-44" cx="1447.48" cy="221.93" fx="1447.48" fy="215.07" r="24.83" gradientTransform="translate(558.54 -1225.54) rotate(90) scale(1 -1)" xlink:href="#radial-gradient"/>
    <clipPath id="clippath">
      <polygon class="cls-43" points="1405 181 647 288 642 262 660 255 641 256 625 172 650 164 624 163 614 113 627 107 613 105 609 85 1384 10 1385 25 1367 29 1387 29 1401.03 150.65 1371 158 1402 155 1405 181"/>
    </clipPath>
    <linearGradient id="linear-gradient" x1="1002.02" y1="-1502.62" x2="1002.02" y2="-847.59" gradientTransform="translate(-445.78 -730.74) rotate(90) scale(.84 1.23)" gradientUnits="userSpaceOnUse">
      <stop offset="0" stop-color="#dea063"/>
      <stop offset=".99" stop-color="#cf7f42"/>
    </linearGradient>
    <radialGradient id="radial-gradient-45" cx="1131.48" cy="551.93" fx="1131.48" fy="551.93" r="13" gradientTransform="translate(95.54 -1028.54) rotate(90) scale(1 -1)" xlink:href="#radial-gradient"/>
    <radialGradient id="radial-gradient-46" cx="1062.48" cy="1265.93" fx="1062.48" fy="1265.93" r="13" gradientTransform="translate(95.54 -1028.54) rotate(90) scale(1 -1)" xlink:href="#radial-gradient"/>
  </defs>
  <g id="Layer_1-2" data-name="Layer 1">
    <path class="cls-7" d="M90,10V1090H2138V10H90Zm1021,976c-240.24,0-435-194.76-435-435S870.76,116,1111,116s435,194.76,435,435-194.76,435-435,435Z"/>
    <path class="cls-32" d="M1111,117.01c58.59,0,115.42,11.47,168.93,34.11,51.68,21.86,98.09,53.15,137.95,93.01,39.86,39.86,71.15,86.27,93.01,137.95,22.63,53.5,34.11,110.34,34.11,168.93s-11.47,115.42-34.11,168.93c-21.86,51.68-53.15,98.09-93.01,137.95-39.86,39.86-86.27,71.15-137.95,93.01-53.5,22.63-110.34,34.11-168.93,34.11s-115.42-11.47-168.93-34.11c-51.68-21.86-98.09-53.15-137.95-93.01-39.86-39.86-71.15-86.27-93.01-137.95-22.63-53.5-34.11-110.34-34.11-168.93s11.47-115.42,34.11-168.93c21.86-51.68,53.15-98.09,93.01-137.95,39.86-39.86,86.27-71.15,137.95-93.01,53.5-22.63,110.34-34.11,168.93-34.11m0-1.01c-240.24,0-435,194.76-435,435s194.76,435,435,435,435-194.76,435-435-194.76-435-435-435h0Z"/>
    <g>
      <path class="cls-53" d="M1111,1062.46c-69.05,0-136.03-13.52-199.08-40.19-60.9-25.76-115.6-62.64-162.58-109.61s-83.85-101.67-109.61-162.58c-26.67-63.05-40.19-130.03-40.19-199.08s13.52-136.03,40.19-199.08c25.76-60.9,62.64-115.6,109.61-162.58s101.67-83.85,162.58-109.61c63.05-26.67,130.03-40.19,199.08-40.19s136.03,13.52,199.08,40.19c60.9,25.76,115.6,62.64,162.58,109.61s83.85,101.67,109.61,162.58c26.67,63.05,40.19,130.03,40.19,199.08s-13.52,136.03-40.19,199.08c-25.76,60.9-62.64,115.6-109.61,162.58s-101.67,83.85-162.58,109.61c-63.05,26.67-130.03,40.19-199.08,40.19Zm0-931.11c-231.39,0-419.65,188.25-419.65,419.65s188.25,419.65,419.65,419.65,419.65-188.25,419.65-419.65-188.25-419.65-419.65-419.65Z"/>
      <path class="cls-28" d="M1111,45.21c68.29,0,134.52,13.37,196.87,39.74,60.23,25.47,114.32,61.95,160.78,108.4,46.46,46.45,82.93,100.55,108.4,160.78,26.37,62.35,39.74,128.59,39.74,196.87s-13.37,134.52-39.74,196.87c-25.47,60.23-61.95,114.32-108.4,160.78-46.45,46.46-100.55,82.93-160.78,108.4-62.35,26.37-128.59,39.74-196.87,39.74s-134.52-13.37-196.87-39.74c-60.23-25.47-114.32-61.95-160.78-108.4-46.46-46.45-82.93-100.55-108.4-160.78-26.37-62.35-39.74-128.59-39.74-196.87s13.37-134.52,39.74-196.87c25.47-60.23,61.95-114.32,108.4-160.78,46.45-46.46,100.55-82.93,160.78-108.4,62.35-26.37,128.59-39.74,196.87-39.74m0,931.11c234.52,0,425.32-190.8,425.32-425.32s-190.8-425.32-425.32-425.32-425.32,190.8-425.32,425.32,190.8,425.32,425.32,425.32m0-942.45c-285.6,0-517.13,231.53-517.13,517.13s231.53,517.13,517.13,517.13,517.13-231.53,517.13-517.13S1396.6,33.87,1111,33.87h0Zm0,931.11c-228.63,0-413.98-185.35-413.98-413.98s185.35-413.98,413.98-413.98,413.98,185.35,413.98,413.98-185.35,413.98-413.98,413.98h0Z"/>
    </g>
    <ellipse class="cls-27" cx="1438.04" cy="879.31" rx="24.96" ry="24.69"/>
    <ellipse class="cls-42" cx="1111.04" cy="1014.31" rx="24.96" ry="24.69"/>
    <ellipse class="cls-46" cx="1114.04" cy="85.31" rx="24.96" ry="24.69"/>
    <ellipse class="cls-16" cx="1571.04" cy="551.31" rx="24.96" ry="24.69"/>
    <ellipse class="cls-15" cx="1436.04" cy="222.31" rx="24.96" ry="24.69"/>
    <g>
      <ellipse class="cls-22" cx="1893.04" cy="623.46" rx="11.67" ry="11.55"/>
      <ellipse class="cls-4" cx="1893.04" cy="712.06" rx="11.67" ry="11.55"/>
      <ellipse class="cls-14" cx="1893.04" cy="800.66" rx="11.67" ry="11.55"/>
      <ellipse class="cls-61" cx="1847.64" cy="579.06" rx="11.55" ry="11.67"/>
      <ellipse class="cls-6" cx="1759.04" cy="579.06" rx="11.55" ry="11.67"/>
      <ellipse class="cls-58" cx="1670.44" cy="579.06" rx="11.55" ry="11.67"/>
      <ellipse class="cls-24" cx="1893.04" cy="889.25" rx="11.67" ry="11.55"/>
      <ellipse class="cls-30" cx="1893.04" cy="977.85" rx="11.67" ry="11.55"/>
      <ellipse class="cls-51" cx="1893.04" cy="1066.45" rx="11.67" ry="11.55"/>
      <ellipse class="cls-38" cx="1893.04" cy="478.93" rx="11.67" ry="11.55"/>
      <ellipse class="cls-11" cx="1893.04" cy="390.33" rx="11.67" ry="11.55"/>
      <ellipse class="cls-49" cx="1893.04" cy="301.73" rx="11.67" ry="11.55"/>
      <ellipse class="cls-59" cx="1847.64" cy="523.33" rx="11.55" ry="11.67"/>
      <ellipse class="cls-23" cx="1759.04" cy="523.33" rx="11.55" ry="11.67"/>
      <ellipse class="cls-12" cx="1670.44" cy="523.33" rx="11.55" ry="11.67"/>
      <ellipse class="cls-13" cx="1893.04" cy="213.13" rx="11.67" ry="11.55"/>
      <ellipse class="cls-21" cx="1893.04" cy="124.53" rx="11.67" ry="11.55"/>
      <ellipse class="cls-56" cx="1893.04" cy="35.93" rx="11.67" ry="11.55"/>
      <ellipse class="cls-36" cx="1950.57" cy="623.46" rx="11.67" ry="11.55"/>
      <ellipse class="cls-19" cx="1950.57" cy="712.06" rx="11.67" ry="11.55"/>
      <ellipse class="cls-20" cx="1950.57" cy="800.66" rx="11.67" ry="11.55"/>
      <ellipse class="cls-29" cx="1995.97" cy="579.06" rx="11.55" ry="11.67"/>
      <ellipse class="cls-10" cx="2084.57" cy="579.06" rx="11.55" ry="11.67"/>
      <ellipse class="cls-55" cx="1950.57" cy="889.25" rx="11.67" ry="11.55"/>
      <ellipse class="cls-35" cx="1950.57" cy="977.85" rx="11.67" ry="11.55"/>
      <ellipse class="cls-8" cx="1950.57" cy="1066.45" rx="11.67" ry="11.55"/>
      <ellipse class="cls-18" cx="1950.57" cy="478.93" rx="11.67" ry="11.55"/>
      <ellipse class="cls-50" cx="1950.57" cy="390.33" rx="11.67" ry="11.55"/>
      <ellipse class="cls-5" cx="1950.57" cy="301.73" rx="11.67" ry="11.55"/>
      <ellipse class="cls-26" cx="1995.97" cy="523.33" rx="11.55" ry="11.67"/>
      <ellipse class="cls-57" cx="2084.57" cy="523.33" rx="11.55" ry="11.67"/>
      <ellipse class="cls-52" cx="1950.57" cy="213.13" rx="11.67" ry="11.55"/>
      <ellipse class="cls-45" cx="1950.57" cy="124.53" rx="11.67" ry="11.55"/>
      <ellipse class="cls-1" cx="1950.57" cy="35.93" rx="11.67" ry="11.55"/>
      <ellipse class="cls-17" cx="557.67" cy="577.71" rx="11.55" ry="11.67"/>
      <ellipse class="cls-25" cx="557.67" cy="521.98" rx="11.55" ry="11.67"/>
    </g>
    <line class="cls-44" x1="84" y1="550.5" x2="594" y2="550.5"/>
    <path class="cls-3" d="M91.5,77.5c5.11,1.63,478,45.5,478,45.5l-67,967-411.5-.5,.5-1012Z"/>
    <ellipse class="cls-47" cx="780.48" cy="879.93" rx="24.69" ry="24.96"/>
    <ellipse class="cls-34" cx="647.48" cy="551.93" rx="24.69" ry="24.96"/>
    <ellipse class="cls-62" cx="780.48" cy="221.93" rx="24.69" ry="24.96"/>
    <line class="cls-44" x1="1628" y1="551" x2="2138" y2="551"/>
    <line class="cls-44" x1="1922" y1="10" x2="1922" y2="1090"/>
    <g class="cls-41">
      <rect class="cls-54" x="612.79" y="-158.51" width="788.59" height="536.56" transform="translate(-5.46 141.88) rotate(-8.04)"/>
      <g>
        <g>
          <path class="cls-33" d="M1303.26,96.96c-17.2,1.69-34.4,2.86-51.58,5.16-28.61,3.83-56.44,10.68-83.99,17.47-21.59,5.33-43.19,10.65-64.78,15.98l300.04-42.36-1.63-11.54c-32.15,6.91-65.15,12.07-98.06,15.3Z"/>
          <path class="cls-33" d="M1092.25,259.04c108.08-22.34,219.26-32.83,328.85-37.37l-.59-4.19c-54.69,3.07-108.03-.98-163.62,2.41-45.52,2.77-91.34,11.9-135.61,22.27-25.09,5.87-49.99,12.19-75.54,17.07-21.56,4.11-43.51,7.19-64.85,11.82-28.5,6.18-55.38,15.02-83.75,21.46-83.77,19.01-174.48,13.24-258.07,31.01l1.39,9.82c72.25-.22,146.73-11.32,220.3-21.71,89.92-12.7,153.39-36.44,231.5-52.58Z"/>
          <path class="cls-33" d="M945.32,374.63c-29.01,.78-58.49,2-87.79,6.47-13.09,2-26.01,4.63-38.91,7.25-36.59,7.44-74.1,14.97-110.94,16.19-19.15,.64-37.77-.45-57.08,.73l3.57,25.26,402.77-56.87c-36.91-.37-74.14-.04-111.62,.96Z"/>
          <path class="cls-33" d="M1138.52-3.18c31.96-5.3,62.32-14.33,92.27-23.26,41.05-12.24,82.1-24.48,123.16-36.72,.82-.24,1.69-.52,2.14-.93,1.46-1.32-2.55-1.81-5.37-1.53-55.73,5.42-109.57,2.79-163.48,1.83-53.91-.96-110.73,0-165.1,11.85-36.67,7.99-70.12,20.49-104.77,31.29-92.74,28.91-196.69,45.97-295.86,48.58-8,.21-16.04,.34-24.1,.66l2.39,16.9c81.4-11.41,162.8-22.89,244.05-35.21,22.51-3.41,45.1-6.91,67.08-11.83,26.49-5.93,51.7-13.84,77.62-20.68,60.22-15.89,124.57-25.98,187.42-29.39,17.87-.97,35.97-1.39,51.89,.92,3.91,.56,8.17,1.68,7.81,3.84-.43,2.64-7.06,4.4-12.4,5.38-53.38,9.81-107.02,18.88-160.79,27.21-7.35,1.14-16.55,1.99-19.78-.86,28.18-11.54,62.85-18.65,95.63-19.61,3.1-1.14,5.45-2.59,8.56-3.73-20.52-.02-41.88,1.82-62.74,5.43-18.61,3.21-36.68,7.77-54.66,12.31-49.3,12.45-98.59,24.89-147.89,37.34,10.19,3.25,25.8,0,39.24-2.52,72.04-13.52,145.19-5.22,217.68-17.25Z"/>
          <path class="cls-33" d="M667.87,1.72c16.04-2.49,32.17-4.41,48.26-6.66,62.2-8.71,123.2-22.33,183.84-35.88,13.09-2.93,26.31-5.89,38.4-10.05-49.39,5.65-97.85,20.83-146.92,23.43-19.28,1.02-38.14,.05-57.54,2.29-28.79,3.32-55.17,13.2-82.46,20.58-18.43,4.99-37.66,8.91-57.06,11.64l1.23,8.72c7.3-1.72,14.53-3.51,20.95-4.76,17.03-3.32,34.09-6.64,51.31-9.31Z"/>
          <path class="cls-33" d="M959.55,42.55c18.56-4.65,37.12-9.31,55.38-14.38,3.8-1.06,8.21-2.56,8.67-4.53,.6-2.6-5.9-3.29-11.12-3.15-34.28,.94-69.18,8.41-103.72,14.05-54.32,8.87-109.19,13.35-163.86,19.46-40.3,4.51-80.78,10-120.2,18.57-7.36,1.6-14.33,3.26-20.36,5.12l2.68,19.01c36.58-6.58,73.16-21.61,109.34-27.69,14.66-2.47,29.49-3.88,44.25-5.29,27.26-2.6,54.52-5.2,81.78-7.8,1.15,1.11-2.14,2.54-4.81,3.25-21.57,5.72-44.25,9.89-66.93,12.32-30.31,3.25-62.72,3.84-89.41,13.68,5.58,.69,11.93,.24,18.11-.21,39.48-2.87,79.17-5.76,118.62-11.73,48.25-7.29,95.09-19.02,141.55-30.67Z"/>
          <path class="cls-33" d="M1013.52,358.36c-.6,2.6,5.9,3.29,11.12,3.15,34.28-.94,69.18-8.41,103.72-14.05,54.32-8.87,109.19-13.35,163.86-19.46,40.3-4.51,80.78-10,120.2-18.57,7.36-1.6,14.33-3.26,20.36-5.12l-2.68-19.01c-36.58,6.58-73.16,21.61-109.34,27.69-14.66,2.47-29.49,3.88-44.25,5.29-27.26,2.6-54.52,5.2-81.78,7.8-1.15-1.11,2.14-2.54,4.81-3.25,21.57-5.72,44.25-9.89,66.93-12.32,30.31-3.25,62.72-3.84,89.41-13.68-5.58-.69-11.93-.24-18.11,.21-39.48,2.87-79.17,5.76-118.62,11.73-48.25,7.29-95.09,19.02-141.55,30.67-18.56,4.65-37.12,9.31-55.38,14.38-3.8,1.06-8.21,2.56-8.67,4.53Z"/>
          <path class="cls-33" d="M1341.72-29.68c-14.38,6.75-32.29,10.94-49.7,14.96-10.35,2.39-22.77,4.77-30.47,2.05,21.88-5.94,43.75-11.88,65.63-17.82-.17-1.14-.34-2.29-.51-3.43-61.72,4.61-115.81,32.69-176.98,43.82,50.14-2.94,100.56-10.26,150.79-16.5,25.32-3.15,50.7-6.06,75.99-7.99,2.95-.23,6.85-.32,11.21-.44l-4.41-31.27c-8.13,1.96-16,4.25-22.95,7.27-6.63,2.88-12.17,6.33-18.58,9.34Z"/>
          <path class="cls-33" d="M816.78,121.92c21.65-6.89,41.81-15.26,64.03-21.53,23.98-6.77,49.61-10.9,74.96-14.97,42.63-6.84,85.27-13.68,127.9-20.52,16.88-2.71,34-5.44,50.77-5.99,20.05-.65,39.32,1.83,59.58-1,12.32-1.72,26.26-5.34,35.95-2.71-50.78,15.66-105.87,25.44-160.28,35.07-24.83,4.39-49.66,8.78-74.49,13.18,40.51-20.37,106.14-19.42,147.04-39.6-90.32,8.81-181.11,29.78-259.52,59.95,77.96-16.72,116.35-4.92,174.62-15.54,71.26-12.99,141.61-28.41,211.83-43.91,8.63-1.9,17.46-3.88,24.82-7.05,7.35-3.18,13.01-7.87,12.06-12.01-1.7-7.37-20.81-8.31-36.37-7.83-35.93,1.11-72.02,2.68-108.21,4.73-28.39,1.6-57.05,3.51-85.48,7.93-28.74,4.46-56.66,11.39-84.69,17.78-123.86,28.25-252.12,46.52-379.76,60.5l.09,.61,9.43-.64c-3.13,.33-6.26,.64-9.39,.94l1.38,9.79c43.55-5.77,87.11-11.54,130.66-17.31-43.17,8.5-86.34,16.99-129.51,25.48l2.53,17.92c35.24-6.78,70.42-13.68,105.56-20.7,32.13-6.42,64.52-13.01,94.51-22.56Z"/>
          <path class="cls-33" d="M979.59,194.85c-51.36,10.81-105.56,15.26-155.42,12.78,22.39-8.19,49.44-5.14,74.8-7.56,22.18-2.12,43.47-8.58,65.34-12.78,27.16-5.22,54.96-6.9,82.52-9.87,121.01-13.09,239.77-51.6,359.37-61.22l-.69-4.91c-62.13,12.14-126.63,14.06-190,22.33-87.44,11.41-172.91,34.96-260.4,43.14-27.67,2.59-55.26,3.6-82.93,7.17-34.96,4.51-68.93,12.94-103.12,20.22-47.18,10.05-95.16,17.98-143.28,25.3l.62,4.38c35.56-6.78,71.38-12.51,107.26-15.2,37.75-2.83,74.65-2.23,112.16-3.91,40.55-1.82,81.82-6.32,122.37-13.36,6.19-1.07,14.4-4.19,11.41-6.51Z"/>
          <path class="cls-33" d="M1252.41,28.41c21.48-.99,43.05-1.97,63.88-1.39,15.04,.42,29.69,1.67,45.13,1.19,9.22-.28,20.89-.98,32.03-2.36l-1.95-13.78c-6.21,1.06-12.43,2.07-18.67,2.73-13.48,1.42-26.71,1.15-40.16,2.24-9.29,.75-18.6,2.14-27.87,3.53-17.46,2.61-34.92,5.23-52.38,7.84Z"/>
          <path class="cls-33" d="M705.91,165.51c19.16-4.76,38.96-8.32,58.7-11.86,35.34-6.34,70.69-12.69,106.03-19.03-84.21,7.52-167.86,24.7-252.02,35.93-.38,.05-.76,.1-1.14,.15l2.3,16.26c11.16-2.13,22.26-4.74,30.69-6.7,18.84-4.37,36.76-10.11,55.44-14.75Z"/>
          <path class="cls-33" d="M1121.58,206.1c30.27-7.8,52.88-15.03,70.96-19.57,18.08-4.54,86.61,.11,105.84-4.6,18.41-4.5,53.02-27.36,112.86-29.99l-1.79-12.66c-41.08,5.17-149.32,19.08-183.61,26.19-42.63,8.84-60.99,15.61-101.02,24.25-40.03,8.64-149.96,31.92-195.9,36.02-45.94,4.1-106.64,3.11-145.69,6.24-23.45,1.87-97.71,15.88-153.32,26.77l2.19,15.51c38.4-9.67,84.43-20.68,110.58-24.86,50.64-8.1,114.59,7.6,151.49,3.76,36.91-3.84,79.4-26.16,110.26-31.32,30.87-5.16,99.28-11.14,117.14-15.75Z"/>
          <path class="cls-33" d="M1427.1,264.23l-1.67-11.82c-37.52-.59-166.87,.07-268.59,33.51-93.94,30.88-122.7,15.43-148.82,24.5-8.5,2.95-49.73,18.18-68.95,25.3-5.01,1.85-8.53,3.16-9.58,3.54-.22,.08-.33,.12-.33,.12l20.61-3.11,477.32-72.04Z"/>
        </g>
        <path class="cls-39" d="M1435.02,320.29l-124.44,17.57C1240.04,12.75,1080.21-111.83,985.84-158.17l374.16-52.83,75.02,531.29Z"/>
        <g>
          <path class="cls-40" d="M1402.39,89.22c-61.01,10.51-239.4,40.51-461.59,71.33-143.17,19.86-234.1,29.35-285.17,33.82-13.37,1.17-24.78,2.07-34.41,2.75l.6,4.28c9.43-.68,20.57-1.56,33.59-2.69,51.21-4.47,142.39-13.98,285.96-33.9,221.96-30.79,400.27-60.77,461.62-71.33l-.6-4.26Z"/>
          <path class="cls-40" d="M1344.86,194.78c30.9-3.48,55.28-5.57,71.48-6.77l-.6-4.27c-16.29,1.21-40.53,3.3-71.11,6.74-54.36,6.12-140.51,17.91-242.25,39.32-85.26,17.94-154.65,29.74-276.9,40.7-67.73,6.07-125.81,12.8-190.33,25.27l.6,4.27c64.36-12.46,122.28-19.17,189.87-25.23,122.71-11.01,192.36-22.85,277.98-40.87,101.33-21.32,187.13-33.06,241.27-39.16Z"/>
          <path class="cls-40" d="M1088.97,38.21C1179.06,22.5,1328.19,6.2,1389.76-.25l-.52-3.72c-62.12,6.51-211.04,22.82-301.32,38.55-41.57,7.25-85.81,15.64-128.58,23.75-78.15,14.83-151.97,28.83-201.65,34.47-50.49,5.73-112.35,12.11-148.97,15.81l.53,3.72c36.73-3.72,98.25-10.06,148.52-15.77,50.29-5.71,124.4-19.77,202.86-34.65,42.72-8.11,86.89-16.49,128.34-23.71Z"/>
          <path class="cls-40" d="M1261.86,78.3c-.88,.14-1.76,.28-2.66,.43,0,0,84.75-7.77,140.25-10.29l-1.89-13.39c-18.63,3.56-59.81,11.05-135.7,23.26Z"/>
          <path class="cls-40" d="M676.06,44.3s0,0,0,0c-4.22-1.32-54.92,8.4-74.69,12.28l1.54,10.91c18.23-3.21,62.38-11.02,68.55-12.26,7.8-1.58,9.85-9.28,4.6-10.92Z"/>
          <path class="cls-40" d="M774.82,332.63c6.54-1.52,7.77-7.76,4.12-10.77,0,0,0,0,0,0-.34-.28-.72-.53-1.14-.75-3.55-1.83-40.24,4.35-60.98,8.04-3.84,.68-6.44,4.33-5.88,8.25h0c.59,4.16,4.49,6.99,8.55,6.2,19.03-3.7,50.4-9.82,55.33-10.96Z"/>
          <path class="cls-40" d="M1427.73,268.67l-.6-4.25c-68.84,10.53-279.07,42.6-477.35,71.85-6.78,1-13.54,2-20.28,2.99-107.57,15.83-210.03,30.57-282.52,40.29l.6,4.25c210.07-28.15,671.25-98.46,780.16-115.13Z"/>
        </g>
        <g>
          <path class="cls-31" d="M1088.68,36.17c90.09-15.71,239.22-32.01,300.79-38.46l-.52-3.72c-62.12,6.51-211.04,22.82-301.32,38.55-41.57,7.25-85.81,15.64-128.58,23.75-78.15,14.83-151.97,28.83-201.65,34.47-50.49,5.73-112.35,12.11-148.97,15.81l.53,3.72c36.73-3.72,98.25-10.06,148.52-15.77,50.29-5.71,124.4-19.77,202.86-34.65,42.72-8.11,86.89-16.49,128.34-23.71Z"/>
          <path class="cls-31" d="M1261.86,78.3c-.88,.14-1.76,.28-2.66,.43,0,0,84.21-11.6,139.66-14.48l-1.75-12.41c-18.46,4.79-59.37,14.21-135.25,26.46Z"/>
          <path class="cls-31" d="M676.06,44.3s0,0,0,0c-.35-.19-.75-.36-1.19-.49-4.21-1.32-54.21,6.9-73.86,10.2l1.51,10.7c18.23-3.21,62.38-11.02,68.55-12.26,7.15-1.45,8.79-6.1,4.99-8.14Z"/>
          <path class="cls-31" d="M629.24,15.21l13.28-1.89,13.27-1.96c17.7-2.6,35.38-5.35,53.04-8.16,8.83-1.4,17.65-2.87,26.47-4.31l13.22-2.23,6.61-1.12,3.3-.56,3.3-.57,13.19-2.3,6.6-1.15,6.59-1.19,13.18-2.37,3.3-.59,3.29-.61,6.58-1.22,13.15-2.45,13.13-2.51,6.56-1.25,3.28-.63,3.27-.64,13.11-2.57,6.55-1.28,6.54-1.31,13.08-2.63,3.27-.66,3.27-.67,6.53-1.35,13.05-2.7c17.38-3.64,34.7-7.4,52.04-11.11l13.01-2.77c4.34-.92,8.68-1.84,13.02-2.75l6.51-1.36c2.17-.46,4.34-.91,6.52-1.35l13.06-2.65c17.43-3.5,34.94-6.79,52.53-9.79,2.2-.37,4.4-.76,6.6-1.12l6.61-1.06,6.61-1.06c2.21-.34,4.41-.66,6.63-.99,4.42-.64,8.83-1.33,13.26-1.9l6.64-.9,3.32-.45c1.11-.15,2.22-.27,3.32-.41l6.64-.81,3.32-.4c1.1-.13,2.21-.28,3.32-.39l13.28-1.42c8.85-.89,17.7-1.65,26.54-2.36,8.85-.72,17.69-1.36,26.54-2.04,8.85-.67,17.71-1.34,26.59-2.1,2.22-.19,4.44-.38,6.66-.58l3.33-.3,3.33-.31c2.22-.2,4.45-.43,6.67-.65,2.23-.23,4.45-.44,6.67-.68l6.67-.72,6.67-.77c2.22-.25,4.44-.52,6.67-.8,2.22-.28,4.44-.53,6.67-.82,17.76-2.25,35.49-4.82,53.16-7.55,11.19-1.73,22.35-3.53,33.51-5.36l-.06-.43-7.07,1.07c-8.84,1.33-17.68,2.65-26.52,3.95l-6.63,.96c-2.21,.32-4.42,.63-6.63,.94l-6.64,.94-6.64,.91c-8.85,1.2-17.7,2.35-26.56,3.43-17.71,2.15-35.42,4-53.11,5.45-17.69,1.47-35.39,2.7-53.14,4.22-4.44,.37-8.88,.78-13.32,1.2l-6.67,.65c-2.22,.23-4.45,.46-6.67,.7l-13.34,1.54c-1.11,.12-2.22,.28-3.33,.42l-3.33,.43-6.66,.86c-1.11,.15-2.22,.28-3.33,.44l-3.33,.48-6.65,.95c-4.44,.61-8.86,1.33-13.27,2.01-2.21,.35-4.42,.68-6.63,1.03l-6.61,1.09-6.61,1.09c-1.11,.18-2.2,.38-3.3,.57l-3.3,.57c-8.81,1.5-17.58,3.13-26.35,4.74l-13.13,2.49-13.11,2.55c-8.73,1.73-17.45,3.47-26.16,5.24-4.36,.88-8.71,1.77-13.06,2.66l-13.05,2.69c-17.4,3.59-34.79,7.19-52.19,10.75l-13.06,2.63-6.53,1.32-3.26,.66-3.27,.65-13.08,2.58-6.54,1.29-6.55,1.26-13.11,2.53-3.28,.63-3.28,.62-6.56,1.23-13.13,2.47-13.14,2.41c-17.53,3.22-35.08,6.34-52.66,9.4-54.87,9.55-109.98,18.24-165.23,26.19l.1,.71,6.48-.88,13.29-1.81,3.32-.46,3.32-.47,6.64-.94Z"/>
          <path class="cls-31" d="M1042.63,296.65c8.72-1.81,17.41-3.68,26.1-5.58,8.68-1.91,17.35-3.84,26.01-5.78,17.32-3.91,34.61-7.9,51.88-11.94l51.79-12.13,51.76-12.21,12.93-3.05c2.15-.51,4.32-.99,6.47-1.49l3.24-.74c1.08-.25,2.15-.5,3.24-.73,4.33-.94,8.65-1.91,13-2.78l3.26-.67c1.08-.22,2.17-.46,3.26-.67l6.54-1.28c2.18-.44,4.37-.83,6.55-1.24l3.28-.61c1.09-.21,2.19-.4,3.29-.59l6.58-1.15c2.19-.38,4.39-.73,6.59-1.09l3.3-.54c1.1-.18,2.2-.34,3.3-.52l6.61-1.02,6.61-.96,1.65-.24,1.66-.22,3.31-.45c8.83-1.18,17.68-2.28,26.54-3.22,8.85-.94,17.72-1.77,26.57-2.47,4.42-.34,8.84-.66,13.26-.95l-.12-.83c-4.36,.22-8.72,.48-13.09,.78-8.88,.6-17.77,1.34-26.67,2.22-8.89,.87-17.78,1.9-26.66,3.05l-3.33,.43-1.66,.22-1.66,.23-6.65,.93-6.64,.99c-1.11,.17-2.22,.33-3.32,.5l-3.31,.53c-2.21,.36-4.42,.7-6.62,1.08l-6.61,1.13c-1.1,.19-2.2,.38-3.3,.59l-3.3,.6c-2.2,.4-4.4,.79-6.59,1.23l-6.58,1.27c-2.19,.42-4.37,.89-6.56,1.34-4.37,.88-8.72,1.86-13.07,2.81-1.09,.23-2.17,.48-3.25,.74l-3.25,.75c-2.16,.5-4.33,1-6.48,1.52l-12.91,3.12c-34.41,8.37-68.67,17.06-103.15,25.22-17.24,4.08-34.52,8.07-51.87,11.9l-13.02,2.85c-4.35,.92-8.69,1.86-13.04,2.77-8.7,1.82-17.41,3.62-26.14,5.36-17.46,3.48-34.97,6.75-52.54,9.78-17.57,3.01-35.2,5.74-52.86,8.02-2.21,.3-4.42,.56-6.63,.82-2.21,.26-4.42,.54-6.63,.79l-6.63,.71c-1.11,.11-2.21,.24-3.32,.35l-3.32,.31c-2.21,.2-4.42,.42-6.63,.61l-6.64,.54c-2.21,.19-4.42,.34-6.63,.5-2.22,.16-4.43,.34-6.64,.47l-6.63,.43-6.63,.4-3.32,.2-3.32,.18c-2.21,.12-4.42,.24-6.63,.35-8.84,.45-17.67,.8-26.5,1.16-16.69,.68-33.4,1.27-50.18,2.26-.06-1.51-.73-2.97-2.02-4.03,0,0,0,0,0,0-.34-.28-.72-.53-1.14-.75-3.55-1.83-40.24,4.35-60.98,8.04-2.27,.4-4.1,1.84-5.11,3.76-.13,.02-.26,.04-.39,.06l-6.63,1.05-1.66,.26-1.66,.28-3.3,.57c-4.42,.73-8.8,1.57-13.2,2.38-2.19,.42-4.38,.87-6.57,1.3l-3.28,.65c-1.09,.21-2.18,.46-3.27,.69l-6.53,1.39c-2.18,.47-4.34,.98-6.5,1.47l-3.25,.74-1.62,.37-1.62,.39-6.46,1.56c-1.08,.26-2.16,.52-3.23,.79l-.17,.04,.08,.55,.32-.07c1.08-.25,2.16-.49,3.24-.74l6.49-1.47,1.62-.36,1.63-.35,3.26-.69,3.25-.7c1.09-.23,2.17-.47,3.26-.69l6.54-1.32c1.09-.21,2.17-.45,3.27-.65l3.28-.62c2.18-.41,4.37-.83,6.56-1.23,4.38-.76,8.76-1.56,13.17-2.25l3.29-.53,1.65-.27,1.65-.25,6.22-.92c-.27,.96-.35,1.99-.2,3.03h0c.59,4.16,4.49,6.99,8.55,6.2,19.03-3.7,50.4-9.82,55.33-10.96,3.31-.77,5.25-2.75,5.9-4.9,7.87-.42,15.74-.77,23.61-1.09,8.83-.36,17.67-.66,26.51-1,17.69-.68,35.42-1.49,53.21-2.77,2.22-.15,4.45-.34,6.67-.5,2.22-.17,4.44-.34,6.67-.53l6.67-.57c2.23-.2,4.46-.43,6.68-.64l3.34-.32c1.12-.11,2.23-.24,3.34-.36l6.68-.74c2.22-.26,4.44-.54,6.67-.82,2.22-.27,4.45-.54,6.66-.85,17.76-2.35,35.44-5.16,53.03-8.31,17.59-3.15,35.08-6.62,52.51-10.25Z"/>
          <path class="cls-31" d="M1402.05,86.83c-61.01,10.51-239.4,40.51-461.59,71.33-143.17,19.86-234.1,29.35-285.17,33.82-13.37,1.17-24.78,2.07-34.41,2.75l.6,4.28c9.43-.68,20.57-1.56,33.59-2.69,51.21-4.47,142.39-13.98,285.96-33.9,221.96-30.79,400.27-60.77,461.62-71.33l-.6-4.26Z"/>
          <path class="cls-31" d="M1344.52,192.39c30.9-3.48,55.28-5.57,71.48-6.77l-.6-4.27c-16.29,1.21-40.53,3.3-71.11,6.74-54.36,6.12-140.51,17.91-242.25,39.32-85.26,17.94-154.65,29.74-276.9,40.7-67.73,6.07-125.81,12.8-190.33,25.27l.6,4.27c64.36-12.46,122.28-19.17,189.87-25.23,122.71-11.01,192.36-22.85,277.98-40.87,101.33-21.32,187.13-33.06,241.27-39.16Z"/>
          <path class="cls-31" d="M1427.43,266.58l-.6-4.25c-70.04,10.72-286.48,43.73-487.76,73.39-111.16,16.38-217.69,31.73-292.4,41.74l.6,4.25c210.07-28.15,671.25-98.46,780.16-115.13Z"/>
        </g>
      </g>
    </g>
    <text class="cls-60" transform="translate(650.17 184.97) rotate(-7.87)"><tspan class="cls-9"><tspan x="0" y="0">CSS Zen Garden</tspan></tspan><tspan class="cls-37"><tspan x="75.32" y="70.87">The Beauty of CSS Design</tspan></tspan></text>
    <ellipse class="cls-48" cx="647.48" cy="102.93" rx="12.93" ry="13.07"/>
    <ellipse class="cls-2" cx="1361.48" cy="33.93" rx="12.93" ry="13.07"/>
  </g>
</svg>