<?xml version="1.0" encoding="UTF-8"?>
<svg id="Layer_2" data-name="Layer 2" xmlns="http://www.w3.org/2000/svg" xmlns:xlink="http://www.w3.org/1999/xlink" viewBox="0 0 1134 1997.26">
  <defs>
    <style>
      .cls-1 {
        fill: url(#radial-gradient-39);
      }

      .cls-2 {
        fill: url(#radial-gradient-46);
      }

      .cls-3 {
        fill: url(#Tin_Radial-2);
        filter: url(#drop-shadow-1);
      }

      .cls-4 {
        fill: url(#radial-gradient-7);
      }

      .cls-5 {
        fill: url(#radial-gradient-34);
      }

      .cls-6 {
        fill: url(#radial-gradient-10);
      }

      .cls-7 {
        fill: url(#radial-gradient-47);
      }

      .cls-8 {
        fill: url(#Aluminum);
      }

      .cls-9 {
        fill: url(#radial-gradient-48);
      }

      .cls-10 {
        fill: url(#radial-gradient-31);
      }

      .cls-11 {
        stroke: gray;
        stroke-miterlimit: 10;
        stroke-width: 8px;
      }

      .cls-11, .cls-12 {
        fill: none;
      }

      .cls-13 {
        fill: url(#radial-gradient-28);
      }

      .cls-14 {
        fill: url(#radial-gradient-16);
      }

      .cls-15 {
        fill: url(#radial-gradient-20);
      }

      .cls-16 {
        fill: url(#radial-gradient-21);
      }

      .cls-17 {
        fill: url(#radial-gradient-8);
      }

      .cls-18 {
        fill: url(#radial-gradient-5);
      }

      .cls-19 {
        fill: url(#radial-gradient-4);
      }

      .cls-20 {
        fill: url(#radial-gradient-40);
      }

      .cls-21 {
        fill: url(#radial-gradient-32);
      }

      .cls-22 {
        font-size: 45.31px;
      }

      .cls-23 {
        fill: url(#radial-gradient-25);
      }

      .cls-24 {
        fill: url(#radial-gradient-26);
      }

      .cls-25 {
        fill: url(#radial-gradient-22);
      }

      .cls-26 {
        fill: url(#radial-gradient-6);
      }

      .cls-27 {
        fill: url(#radial-gradient-19);
      }

      .cls-28 {
        fill: url(#radial-gradient-12);
      }

      .cls-29 {
        fill: url(#radial-gradient-41);
      }

      .cls-30 {
        fill: url(#radial-gradient-35);
      }

      .cls-31 {
        fill: url(#radial-gradient);
      }

      .cls-32 {
        fill: gray;
      }

      .cls-33 {
        fill: url(#radial-gradient-27);
      }

      .cls-34 {
        fill: url(#radial-gradient-13);
      }

      .cls-35 {
        fill: #652e10;
      }

      .cls-36 {
        font-size: 90.61px;
      }

      .cls-37 {
        fill: url(#White_Black);
      }

      .cls-38 {
        fill: #bd743f;
      }

      .cls-39 {
        fill: url(#radial-gradient-43);
      }

      .cls-40 {
        fill: url(#radial-gradient-30);
      }

      .cls-41 {
        fill: url(#radial-gradient-24);
      }

      .cls-42 {
        fill: url(#radial-gradient-15);
      }

      .cls-43 {
        opacity: .25;
      }

      .cls-43, .cls-44 {
        fill: #fcc995;
      }

      .cls-45 {
        clip-path: url(#clippath);
      }

      .cls-46 {
        fill: url(#radial-gradient-2);
      }

      .cls-47 {
        fill: url(#radial-gradient-38);
      }

      .cls-48 {
        fill: url(#radial-gradient-3);
      }

      .cls-49 {
        fill: url(#radial-gradient-42);
      }

      .cls-50 {
        fill: url(#radial-gradient-45);
      }

      .cls-51 {
        fill: url(#radial-gradient-17);
      }

      .cls-52 {
        fill: url(#radial-gradient-33);
      }

      .cls-53 {
        fill: url(#radial-gradient-14);
      }

      .cls-54 {
        fill: url(#radial-gradient-37);
      }

      .cls-55 {
        fill: url(#Tin_Radial);
      }

      .cls-56 {
        fill: url(#linear-gradient);
      }

      .cls-57 {
        fill: url(#radial-gradient-29);
      }

      .cls-58 {
        fill: url(#radial-gradient-23);
      }

      .cls-59 {
        fill: url(#radial-gradient-36);
      }

      .cls-60 {
        fill: url(#radial-gradient-11);
      }

      .cls-61 {
        fill: url(#radial-gradient-18);
      }

      .cls-62 {
        font-family: ImprintMT-Shadow, 'Imprint MT Shadow';
      }

      .cls-63 {
        fill: url(#radial-gradient-9);
      }

      .cls-64 {
        fill: url(#radial-gradient-44);
      }
    </style>
    <linearGradient id="Aluminum" x1="-3358.87" y1="1488.05" x2="-2536.37" y2="-252.92" gradientTransform="translate(1460.39 4099.87) rotate(90)" gradientUnits="userSpaceOnUse">
      <stop offset="0" stop-color="#bbbcbe"/>
      <stop offset=".29" stop-color="#989ca0"/>
      <stop offset=".65" stop-color="#bfbec2"/>
      <stop offset=".87" stop-color="#9ea0a4"/>
      <stop offset="1" stop-color="#a7a9ac"/>
      <stop offset="1" stop-color="#c3c6ca"/>
    </linearGradient>
    <linearGradient id="White_Black" data-name="White, Black" x1="592.67" y1="622.72" x2="592.67" y2="1440.67" gradientUnits="userSpaceOnUse">
      <stop offset="0" stop-color="#fff"/>
      <stop offset="1" stop-color="#000"/>
    </linearGradient>
    <radialGradient id="Tin_Radial" data-name="Tin Radial" cx="-3068.18" cy="867.72" fx="-3068.18" fy="867.72" r="827.55" gradientTransform="translate(1460.39 4099.87) rotate(90)" gradientUnits="userSpaceOnUse">
      <stop offset="0" stop-color="#c4c6c8"/>
      <stop offset=".3" stop-color="#bcbec0"/>
      <stop offset=".66" stop-color="#a7a9ac"/>
      <stop offset="1" stop-color="#9b9da0"/>
    </radialGradient>
    <radialGradient id="radial-gradient" cx="-2760.7" cy="1176.39" fx="-2760.7" fy="1169.93" r="23.34" gradientTransform="translate(1460.39 4099.87) rotate(90)" gradientUnits="userSpaceOnUse">
      <stop offset=".25" stop-color="#ccc"/>
      <stop offset=".36" stop-color="silver"/>
      <stop offset=".55" stop-color="#a2a2a2"/>
      <stop offset=".8" stop-color="#717171"/>
      <stop offset=".97" stop-color="#4d4d4d"/>
    </radialGradient>
    <radialGradient id="radial-gradient-2" cx="-3068.14" cy="1303.31" fx="-3068.14" fy="1296.85" r="23.34" xlink:href="#radial-gradient"/>
    <radialGradient id="radial-gradient-3" cx="-3068.14" cy="422.37" fx="-3068.14" fy="415.91" r="23.34" xlink:href="#radial-gradient"/>
    <radialGradient id="radial-gradient-4" cx="-3379.34" cy="558.69" fx="-3379.34" fy="552.23" r="23.34" xlink:href="#radial-gradient"/>
    <radialGradient id="radial-gradient-5" cx="1904.24" cy="3413.74" fx="1904.24" fy="3407.28" r="23.34" gradientTransform="translate(-1345.82 -2796.37)" xlink:href="#radial-gradient"/>
    <radialGradient id="radial-gradient-6" cx="-2635.66" cy="868.01" fx="-2635.66" fy="861.55" r="23.34" xlink:href="#radial-gradient"/>
    <radialGradient id="radial-gradient-7" cx="-2762.58" cy="558.69" fx="-2762.58" fy="552.23" r="23.34" xlink:href="#radial-gradient"/>
    <radialGradient id="radial-gradient-8" cx="-2332.92" cy="935.85" fx="-2332.92" fy="935.85" r="10.92" xlink:href="#radial-gradient"/>
    <radialGradient id="radial-gradient-9" cx="-2332.92" cy="1019.14" fx="-2332.92" fy="1019.14" r="10.92" xlink:href="#radial-gradient"/>
    <radialGradient id="radial-gradient-10" cx="-2332.92" cy="1102.44" fx="-2332.92" fy="1102.44" r="10.92" xlink:href="#radial-gradient"/>
    <radialGradient id="radial-gradient-11" cx="795.08" cy="1095.22" fx="795.08" fy="1095.22" r="10.92" gradientTransform="translate(1361.37 2819.49) rotate(-180)" xlink:href="#radial-gradient"/>
    <radialGradient id="radial-gradient-12" cx="795.08" cy="1178.52" fx="795.08" fy="1178.52" r="10.92" gradientTransform="translate(1361.37 2819.49) rotate(-180)" xlink:href="#radial-gradient"/>
    <radialGradient id="radial-gradient-13" cx="795.08" cy="1261.82" fx="795.08" fy="1261.82" r="10.92" gradientTransform="translate(1361.37 2819.49) rotate(-180)" xlink:href="#radial-gradient"/>
    <radialGradient id="radial-gradient-14" cx="-2332.92" cy="1185.74" fx="-2332.92" fy="1185.74" r="10.92" xlink:href="#radial-gradient"/>
    <radialGradient id="radial-gradient-15" cx="-2332.92" cy="1269.04" fx="-2332.92" fy="1269.04" r="10.92" xlink:href="#radial-gradient"/>
    <radialGradient id="radial-gradient-16" cx="-2332.92" cy="1352.34" fx="-2332.92" fy="1352.34" r="10.92" xlink:href="#radial-gradient"/>
    <radialGradient id="radial-gradient-17" cx="-2332.92" cy="-2004.06" fx="-2332.92" fy="-2004.06" r="10.92" gradientTransform="translate(2664.49 4099.87) rotate(90) scale(1 -1)" xlink:href="#radial-gradient"/>
    <radialGradient id="radial-gradient-18" cx="-2332.92" cy="-1920.76" fx="-2332.92" fy="-1920.76" r="10.92" gradientTransform="translate(2664.49 4099.87) rotate(90) scale(1 -1)" xlink:href="#radial-gradient"/>
    <radialGradient id="radial-gradient-19" cx="-2332.92" cy="-1837.46" fx="-2332.92" fy="-1837.46" r="10.92" gradientTransform="translate(2664.49 4099.87) rotate(90) scale(1 -1)" xlink:href="#radial-gradient"/>
    <radialGradient id="radial-gradient-20" cx="-2144.82" cy="1095.22" fx="-2144.82" fy="1095.22" r="10.92" gradientTransform="translate(2763.51 2819.49) scale(1 -1)" xlink:href="#radial-gradient"/>
    <radialGradient id="radial-gradient-21" cx="-2144.82" cy="1178.52" fx="-2144.82" fy="1178.52" r="10.92" gradientTransform="translate(2763.51 2819.49) scale(1 -1)" xlink:href="#radial-gradient"/>
    <radialGradient id="radial-gradient-22" cx="-2144.82" cy="1261.82" fx="-2144.82" fy="1261.82" r="10.92" gradientTransform="translate(2763.51 2819.49) scale(1 -1)" xlink:href="#radial-gradient"/>
    <radialGradient id="radial-gradient-23" cx="-2332.92" cy="-1754.17" fx="-2332.92" fy="-1754.17" r="10.92" gradientTransform="translate(2664.49 4099.87) rotate(90) scale(1 -1)" xlink:href="#radial-gradient"/>
    <radialGradient id="radial-gradient-24" cx="-2332.92" cy="-1670.87" fx="-2332.92" fy="-1670.87" r="10.92" gradientTransform="translate(2664.49 4099.87) rotate(90) scale(1 -1)" xlink:href="#radial-gradient"/>
    <radialGradient id="radial-gradient-25" cx="-2332.92" cy="-1587.57" fx="-2332.92" fy="-1587.57" r="10.92" gradientTransform="translate(2664.49 4099.87) rotate(90) scale(1 -1)" xlink:href="#radial-gradient"/>
    <radialGradient id="radial-gradient-26" cx="1408.96" cy="935.85" fx="1408.96" fy="935.85" r="10.92" gradientTransform="translate(1460.39 3229.99) rotate(-90) scale(1 -1)" xlink:href="#radial-gradient"/>
    <radialGradient id="radial-gradient-27" cx="1408.96" cy="1019.14" fx="1408.96" fy="1019.14" r="10.92" gradientTransform="translate(1460.39 3229.99) rotate(-90) scale(1 -1)" xlink:href="#radial-gradient"/>
    <radialGradient id="radial-gradient-28" cx="1408.96" cy="1102.44" fx="1408.96" fy="1102.44" r="10.92" gradientTransform="translate(1460.39 3229.99) rotate(-90) scale(1 -1)" xlink:href="#radial-gradient"/>
    <radialGradient id="radial-gradient-29" cx="795.08" cy="-2646.66" fx="795.08" fy="-2646.66" r="10.92" gradientTransform="translate(1361.37 4510.38) rotate(-180) scale(1 -1)" xlink:href="#radial-gradient"/>
    <radialGradient id="radial-gradient-30" cx="795.08" cy="-2563.36" fx="795.08" fy="-2563.36" r="10.92" gradientTransform="translate(1361.37 4510.38) rotate(-180) scale(1 -1)" xlink:href="#radial-gradient"/>
    <radialGradient id="radial-gradient-31" cx="1408.96" cy="1185.74" fx="1408.96" fy="1185.74" r="10.92" gradientTransform="translate(1460.39 3229.99) rotate(-90) scale(1 -1)" xlink:href="#radial-gradient"/>
    <radialGradient id="radial-gradient-32" cx="1408.96" cy="1269.04" fx="1408.96" fy="1269.04" r="10.92" gradientTransform="translate(1460.39 3229.99) rotate(-90) scale(1 -1)" xlink:href="#radial-gradient"/>
    <radialGradient id="radial-gradient-33" cx="1408.96" cy="1352.34" fx="1408.96" fy="1352.34" r="10.92" gradientTransform="translate(1460.39 3229.99) rotate(-90) scale(1 -1)" xlink:href="#radial-gradient"/>
    <radialGradient id="radial-gradient-34" cx="1408.96" cy="-2004.06" fx="1408.96" fy="-2004.06" r="10.92" gradientTransform="translate(2664.49 3229.99) rotate(-90)" xlink:href="#radial-gradient"/>
    <radialGradient id="radial-gradient-35" cx="1408.96" cy="-1920.76" fx="1408.96" fy="-1920.76" r="10.92" gradientTransform="translate(2664.49 3229.99) rotate(-90)" xlink:href="#radial-gradient"/>
    <radialGradient id="radial-gradient-36" cx="1408.96" cy="-1837.46" fx="1408.96" fy="-1837.46" r="10.92" gradientTransform="translate(2664.49 3229.99) rotate(-90)" xlink:href="#radial-gradient"/>
    <radialGradient id="radial-gradient-37" cx="-2144.82" cy="-2646.66" fx="-2144.82" fy="-2646.66" r="10.92" gradientTransform="translate(2763.51 4510.38)" xlink:href="#radial-gradient"/>
    <radialGradient id="radial-gradient-38" cx="-2144.82" cy="-2563.36" fx="-2144.82" fy="-2563.36" r="10.92" gradientTransform="translate(2763.51 4510.38)" xlink:href="#radial-gradient"/>
    <radialGradient id="radial-gradient-39" cx="1408.96" cy="-1754.17" fx="1408.96" fy="-1754.17" r="10.92" gradientTransform="translate(2664.49 3229.99) rotate(-90)" xlink:href="#radial-gradient"/>
    <radialGradient id="radial-gradient-40" cx="1408.96" cy="-1670.87" fx="1408.96" fy="-1670.87" r="10.92" gradientTransform="translate(2664.49 3229.99) rotate(-90)" xlink:href="#radial-gradient"/>
    <radialGradient id="radial-gradient-41" cx="1408.96" cy="-1587.57" fx="1408.96" fy="-1587.57" r="10.92" gradientTransform="translate(2664.49 3229.99) rotate(-90)" xlink:href="#radial-gradient"/>
    <radialGradient id="radial-gradient-42" cx="793.82" cy="2308.01" fx="793.82" fy="2308.01" r="10.92" gradientTransform="translate(1361.37 2819.49) rotate(-180)" xlink:href="#radial-gradient"/>
    <radialGradient id="radial-gradient-43" cx="-2143.56" cy="2308.01" fx="-2143.56" fy="2308.01" r="10.92" gradientTransform="translate(2763.51 2819.49) scale(1 -1)" xlink:href="#radial-gradient"/>
    <radialGradient id="Tin_Radial-2" data-name="Tin Radial" cx="-3939.72" cy="515.42" fx="-3922.24" fy="428.26" r="867.43" xlink:href="#Tin_Radial"/>
    <filter id="drop-shadow-1" filterUnits="userSpaceOnUse">
      <feOffset dx="4.7" dy="17.86"/>
      <feGaussianBlur result="blur" stdDeviation="30.09"/>
      <feFlood flood-color="#000" flood-opacity=".37"/>
      <feComposite in2="blur" operator="in"/>
      <feComposite in="SourceGraphic"/>
    </filter>
    <radialGradient id="radial-gradient-44" cx="580.52" cy="-2115.47" fx="580.52" fy="-2121.93" r="23.34" gradientTransform="translate(863.93 2836.42) rotate(-180) scale(1 -1)" xlink:href="#radial-gradient"/>
    <radialGradient id="radial-gradient-45" cx="733.14" cy="-2435.51" fx="733.14" fy="-2441.97" r="23.34" gradientTransform="translate(1324.93 3031.42) rotate(-180) scale(1 -1)" xlink:href="#radial-gradient"/>
    <radialGradient id="radial-gradient-46" cx="3603.74" cy="2196.09" fx="3603.74" fy="2189.63" r="23.34" gradientTransform="translate(-1937.29 -2827.99) rotate(90) scale(1 -1)" xlink:href="#radial-gradient"/>
    <clipPath id="clippath">
      <polygon class="cls-12" points="839.42 680.29 139.95 849.78 132.89 825.91 149.09 817.71 131.41 820.38 108.75 743.25 131.41 733.47 106.99 734.92 93.05 689.05 104.67 682.24 91.39 681.65 85.81 663.3 804.12 522.2 806.43 536.14 789.96 541.54 808.67 539.7 832.93 652.25 805.51 661.88 834.24 656.23 839.42 680.29"/>
    </clipPath>
    <linearGradient id="linear-gradient" x1="4532.82" y1="-4826.19" x2="4532.82" y2="-4210.34" gradientTransform="translate(-5113.61 -3152.19) rotate(90) scale(.84 1.23)" gradientUnits="userSpaceOnUse">
      <stop offset="0" stop-color="#dea063"/>
      <stop offset=".99" stop-color="#cf7f42"/>
    </linearGradient>
    <radialGradient id="radial-gradient-47" cx="3294.86" cy="2534.04" fx="3294.86" fy="2534.04" r="12.22" gradientTransform="translate(-2410.58 -2618.29) rotate(90) scale(1 -1)" xlink:href="#radial-gradient"/>
    <radialGradient id="radial-gradient-48" cx="3229.98" cy="3205.33" fx="3229.98" fy="3205.33" r="12.22" gradientTransform="translate(-2420.09 -2683.33) rotate(90) scale(1 -1)" xlink:href="#radial-gradient"/>
  </defs>
  <g id="Layer_1-2" data-name="Layer 1">
    <path class="cls-8" d="M1101.3,71.78H85.91V1997.26h1015.39V71.78ZM183.69,1031.7c0-225.87,183.11-408.98,408.98-408.98s408.98,183.11,408.98,408.98-183.11,408.98-408.98,408.98-408.98-183.11-408.98-408.98Z"/>
    <path class="cls-37" d="M592.67,623.67c55.08,0,108.52,10.79,158.82,32.07,48.59,20.55,92.22,49.97,129.7,87.45,37.47,37.47,66.89,81.11,87.45,129.7,21.28,50.3,32.07,103.74,32.07,158.82s-10.79,108.52-32.07,158.82c-20.55,48.59-49.97,92.22-87.45,129.7s-81.11,66.89-129.7,87.45c-50.3,21.28-103.74,32.07-158.82,32.07s-108.52-10.79-158.82-32.07c-48.59-20.55-92.22-49.97-129.7-87.45s-66.89-81.11-87.45-129.7c-21.28-50.3-32.07-103.74-32.07-158.82s10.79-108.52,32.07-158.82c20.55-48.59,49.97-92.22,87.45-129.7,37.47-37.47,81.11-66.89,129.7-87.45,50.3-21.28,103.74-32.07,158.82-32.07m0-.95c-225.87,0-408.98,183.11-408.98,408.98s183.11,408.98,408.98,408.98,408.98-183.11,408.98-408.98-183.11-408.98-408.98-408.98h0Z"/>
    <g>
      <path class="cls-55" d="M592.67,1512.56c-64.92,0-127.89-12.71-187.17-37.79-57.26-24.22-108.69-58.89-152.85-103.06-44.16-44.16-78.84-95.59-103.06-152.85-25.07-59.28-37.79-122.25-37.79-187.17s12.71-127.89,37.79-187.17c24.22-57.26,58.89-108.69,103.06-152.85,44.16-44.16,95.59-78.84,152.85-103.06,59.28-25.07,122.25-37.79,187.17-37.79s127.89,12.71,187.17,37.79c57.26,24.22,108.69,58.89,152.85,103.06,44.16,44.16,78.84,95.59,103.06,152.85,25.07,59.28,37.79,122.25,37.79,187.17s-12.71,127.89-37.79,187.17c-24.22,57.26-58.89,108.69-103.06,152.85s-95.59,78.84-152.85,103.06c-59.28,25.07-122.25,37.79-187.17,37.79Zm0-875.4c-217.55,0-394.54,176.99-394.54,394.54s176.99,394.54,394.54,394.54,394.54-176.99,394.54-394.54-176.99-394.54-394.54-394.54Z"/>
      <path class="cls-32" d="M592.67,556.17c64.2,0,126.47,12.57,185.09,37.37,56.62,23.95,107.48,58.24,151.16,101.92,43.68,43.68,77.97,94.53,101.92,151.16,24.79,58.62,37.37,120.89,37.37,185.09s-12.57,126.47-37.37,185.09c-23.95,56.62-58.24,107.48-101.92,151.16s-94.53,77.97-151.16,101.92c-58.62,24.79-120.89,37.37-185.09,37.37s-126.47-12.57-185.09-37.37c-56.62-23.95-107.48-58.24-151.16-101.92s-77.97-94.53-101.92-151.16c-24.79-58.62-37.37-120.89-37.37-185.09s12.57-126.47,37.37-185.09c23.95-56.62,58.24-107.48,101.92-151.16,43.68-43.68,94.53-77.97,151.16-101.92,58.62-24.79,120.89-37.37,185.09-37.37m0,875.4c220.49,0,399.87-179.38,399.87-399.87s-179.38-399.87-399.87-399.87-399.87,179.38-399.87,399.87,179.38,399.87,399.87,399.87m0-886.06c-268.51,0-486.19,217.68-486.19,486.19s217.68,486.19,486.19,486.19,486.19-217.68,486.19-486.19-217.68-486.19-486.19-486.19h0Zm0,875.4c-214.95,0-389.21-174.26-389.21-389.21s174.26-389.21,389.21-389.21,389.21,174.26,389.21,389.21-174.26,389.21-389.21,389.21h0Z"/>
    </g>
    <ellipse class="cls-31" cx="284" cy="1339.17" rx="23.22" ry="23.47"/>
    <ellipse class="cls-46" cx="157.08" cy="1031.74" rx="23.22" ry="23.47"/>
    <ellipse class="cls-48" cx="1038.02" cy="1031.74" rx="23.22" ry="23.47"/>
    <ellipse class="cls-19" cx="901.7" cy="720.54" rx="23.22" ry="23.47"/>
    <ellipse class="cls-18" cx="558.41" cy="617.37" rx="23.47" ry="23.22" transform="translate(-57.44 57.29) rotate(-5.59)"/>
    <ellipse class="cls-26" cx="592.38" cy="1464.22" rx="23.22" ry="23.47"/>
    <ellipse class="cls-4" cx="901.7" cy="1337.29" rx="23.22" ry="23.47"/>
    <g>
      <ellipse class="cls-17" cx="524.54" cy="1766.95" rx="10.86" ry="10.97"/>
      <ellipse class="cls-63" cx="441.24" cy="1766.95" rx="10.86" ry="10.97"/>
      <ellipse class="cls-6" cx="357.95" cy="1766.95" rx="10.86" ry="10.97"/>
      <ellipse class="cls-60" cx="566.29" cy="1724.27" rx="10.97" ry="10.86"/>
      <ellipse class="cls-28" cx="566.29" cy="1640.97" rx="10.97" ry="10.86"/>
      <ellipse class="cls-34" cx="566.29" cy="1557.67" rx="10.97" ry="10.86"/>
      <ellipse class="cls-53" cx="274.65" cy="1766.95" rx="10.86" ry="10.97"/>
      <ellipse class="cls-42" cx="191.35" cy="1766.95" rx="10.86" ry="10.97"/>
      <ellipse class="cls-14" cx="108.05" cy="1766.95" rx="10.86" ry="10.97"/>
      <ellipse class="cls-51" cx="660.43" cy="1766.95" rx="10.86" ry="10.97"/>
      <ellipse class="cls-61" cx="743.73" cy="1766.95" rx="10.86" ry="10.97"/>
      <ellipse class="cls-27" cx="827.02" cy="1766.95" rx="10.86" ry="10.97"/>
      <ellipse class="cls-15" cx="618.68" cy="1724.27" rx="10.97" ry="10.86"/>
      <ellipse class="cls-16" cx="618.68" cy="1640.97" rx="10.97" ry="10.86"/>
      <ellipse class="cls-25" cx="618.68" cy="1557.67" rx="10.97" ry="10.86"/>
      <ellipse class="cls-58" cx="910.32" cy="1766.95" rx="10.86" ry="10.97"/>
      <ellipse class="cls-41" cx="993.62" cy="1766.95" rx="10.86" ry="10.97"/>
      <ellipse class="cls-23" cx="1076.92" cy="1766.95" rx="10.86" ry="10.97"/>
      <ellipse class="cls-24" cx="524.54" cy="1821.04" rx="10.86" ry="10.97"/>
      <ellipse class="cls-33" cx="441.24" cy="1821.04" rx="10.86" ry="10.97"/>
      <ellipse class="cls-13" cx="357.95" cy="1821.04" rx="10.86" ry="10.97"/>
      <ellipse class="cls-57" cx="566.29" cy="1863.72" rx="10.97" ry="10.86"/>
      <ellipse class="cls-40" cx="566.29" cy="1947.02" rx="10.97" ry="10.86"/>
      <ellipse class="cls-10" cx="274.65" cy="1821.04" rx="10.86" ry="10.97"/>
      <ellipse class="cls-21" cx="191.35" cy="1821.04" rx="10.86" ry="10.97"/>
      <ellipse class="cls-52" cx="108.05" cy="1821.04" rx="10.86" ry="10.97"/>
      <ellipse class="cls-5" cx="660.43" cy="1821.04" rx="10.86" ry="10.97"/>
      <ellipse class="cls-30" cx="743.73" cy="1821.04" rx="10.86" ry="10.97"/>
      <ellipse class="cls-59" cx="827.02" cy="1821.04" rx="10.86" ry="10.97"/>
      <ellipse class="cls-54" cx="618.68" cy="1863.72" rx="10.97" ry="10.86"/>
      <ellipse class="cls-47" cx="618.68" cy="1947.02" rx="10.97" ry="10.86"/>
      <ellipse class="cls-1" cx="910.32" cy="1821.04" rx="10.86" ry="10.97"/>
      <ellipse class="cls-20" cx="993.62" cy="1821.04" rx="10.86" ry="10.97"/>
      <ellipse class="cls-29" cx="1076.92" cy="1821.04" rx="10.86" ry="10.97"/>
      <ellipse class="cls-49" cx="567.55" cy="511.47" rx="10.97" ry="10.86"/>
      <ellipse class="cls-39" cx="619.95" cy="511.47" rx="10.97" ry="10.86"/>
    </g>
    <line class="cls-11" x1="593.14" y1="66.14" x2="593.14" y2="545.63"/>
    <path class="cls-3" d="M1037.84,73.19c-1.53,4.8-42.78,449.4-42.78,449.4L85.91,459.6l.47-386.88,951.46,.47Z"/>
    <ellipse class="cls-64" cx="283.41" cy="720.95" rx="23.47" ry="23.22"/>
    <ellipse class="cls-50" cx="591.79" cy="595.91" rx="23.47" ry="23.22"/>
    <ellipse class="cls-2" cx="258.8" cy="775.74" rx="23.22" ry="23.47" transform="translate(-74.28 28.88) rotate(-5.59)"/>
    <line class="cls-11" x1="592.67" y1="1517.77" x2="592.67" y2="1997.26"/>
    <line class="cls-11" x1="1101.3" y1="1794.18" x2="85.91" y2="1794.18"/>
    <g class="cls-45">
      <rect class="cls-56" x="89.87" y="397.82" width="741.41" height="504.46" transform="translate(-140.15 126.77) rotate(-13.62)"/>
      <g>
        <g>
          <path class="cls-38" d="M736.53,610.96c-15.94,3.15-31.93,5.82-47.79,9.54-26.42,6.2-51.84,15.16-76.99,24.04-19.72,6.96-39.43,13.92-59.15,20.88l276.87-67.1-2.58-10.65c-29.45,9.41-59.86,17.25-90.36,23.29Z"/>
          <path class="cls-38" d="M287.07,476.13c-12.58,6.13-30.02,12.41-31.16,19.9,4.07,2.45,12.04,1.92,19.54,1.23,61.2-5.62,121.6-33.48,183.75-46.94,13.49-2.92,27.02-5.15,40.53-7.47,92.77-15.94,185.77-36.46,277.25-61.14l-2.88-11.89c-45.49,10.25-91.04,20.44-136.67,29.22-19.03,3.67-38.12,7.1-57.05,11.58-17.13,4.06-34.02,8.94-50.99,13.54-48.68,13.18-98.23,24.01-147.59,32.26-6.2,1.03-14.3,1.48-14.45-1.56-.06-1.24,1.39-2.65,2.88-3.94,12.96-11.19,32.7-20.71,53.46-28.11,20.76-7.39,42.7-12.89,64.47-18.33,19.18-4.79,38.36-9.59,57.54-14.38,6.42-1.61,15.12-2.89,16.46,0,1.09,2.36-4.03,5.4-8.65,7.53-20.17,9.31-43.02,16.72-66.1,21.43-4.39,.89-9.86,1.54-11.33-.24,1.46-1.56,2.92-3.13,4.37-4.69-16.69,5-32.75,11.22-47.37,18.34,61.63-8.64,124.47-24.37,182.58-45.69,4.56-1.67,9.25-3.46,12.62-5.82,3.37-2.36,5.05-5.45,2.64-7.1-3.59-2.45-12.56-.43-19.72,.4-7.37,.85-14.07,.27-20.91,.09-30.5-.82-65.4,6.32-97.83,15.81-32.43,9.49-63.45,21.36-95.52,31.53-20.83,6.6-42.75,12.75-60.25,22.22-18.44,9.99-30.19,22.75-49.59,32.2Z"/>
          <path class="cls-38" d="M211.67,503.7c10.95-6.04,20.42-12.73,31.51-18.7,19.4-10.44,44.34-19.08,56.61-31.47-17.44,5.95-31.61,14.77-47.18,22.4-21.18,10.38-45.55,18.75-70.35,24.18-22.69,4.96-46.53,7.73-67.38,16.1,.14,1.52,3.41,1.99,6.52,1.53,3.11-.46,6.13-1.59,9.15-2.53,7.77-2.43,16.14-3.75,23.64-3.73,1.43,0,3.06,.18,3.04,.94-.02,.79-1.77,1.56-3.25,2.09-11.06,3.98-22.58,7.38-34.24,10.13-7.96,1.87-17.18,3.41-22.28,1.3-5.44-2.26-3.11-7.94,3.03-12.03s14.91-6.85,23.36-9.03c24.9-6.43,52.34-10.14,73.08-21.05-6.69-.1-14.22,2.17-21.3,4.17-43.15,12.19-87.43,16.93-130.76,20.64l12.58,51.93c29.44-9.79,58.77-19.72,88-29.81,23.15-7.99,46.66-16.26,66.23-27.04Z"/>
          <path class="cls-38" d="M59.56,569.28v.02c.16-.06,.31-.12,.45-.17l-.45,.15Z"/>
          <path class="cls-38" d="M553.92,781.93c99.09-30.79,202.16-50.78,304.28-65.06l-.94-3.87c-50.89,7.88-101.18,8.97-152.88,17.23-42.34,6.76-84.37,19.5-124.85,33.25-22.94,7.79-45.66,15.98-69.12,22.88-19.8,5.82-40.05,10.71-59.6,16.99-26.1,8.39-50.45,19.12-76.4,27.74-76.65,25.45-162.05,28.35-238.64,52.64l2.2,9.06c67.59-6.82,136.26-24.02,204.15-40.47,82.98-20.11,140.19-48.13,211.81-70.39Z"/>
          <path class="cls-38" d="M600.17,365.29c43.01-8.77,82.87-3.1,125.9-10.43,10.89-1.85,29.93-5.26,42.07-9.63l-3.23-13.32c-19.14,5.44-38.43,10.66-57.91,14.22-35.84,6.55-72.57,7.57-106.82,19.15Z"/>
          <path class="cls-38" d="M427.02,903.54c-27.07,3.38-54.54,7.22-81.55,14.09-12.06,3.07-23.91,6.71-35.74,10.35-33.56,10.31-67.97,20.79-102.32,25.3-17.86,2.35-35.38,3.04-53.35,5.91l5.65,23.31,371.67-90.07c-34.57,3.03-69.38,6.74-104.35,11.11Z"/>
          <path class="cls-38" d="M573.22,532.33c29.42-7.89,57-19.11,84.21-30.21,37.29-15.21,74.58-30.42,111.88-45.63,.74-.3,1.54-.64,1.92-1.06,1.24-1.37-2.55-1.46-5.16-.95-51.65,10.17-102.27,12.64-152.8,16.67-50.54,4.04-103.61,10.13-153.4,26.2-33.58,10.84-63.73,25.59-95.17,38.87-84.13,35.53-179.84,61.02-272.39,72.53-7.46,.93-14.98,1.78-22.49,2.82l3.78,15.59c75.13-18.13,150.23-36.32,225.14-55.28,20.75-5.26,41.57-10.59,61.68-17.21,24.25-7.97,47.11-17.68,70.73-26.46,54.89-20.38,114.19-35.71,172.68-44.65,16.63-2.54,33.53-4.59,48.64-3.89,3.71,.17,7.8,.82,7.66,2.88-.16,2.51-6.2,4.76-11.11,6.17-49.05,14.07-98.41,27.46-147.97,40.17-6.78,1.74-15.31,3.38-18.58,1.01,25.32-13.38,57.1-23.21,87.68-27.1,2.8-1.35,4.86-2.92,7.67-4.27-19.2,1.86-39.02,5.54-58.21,10.82-17.12,4.7-33.61,10.63-50.02,16.52-44.99,16.16-89.98,32.32-134.96,48.47,9.84,2.1,24.14-2.36,36.49-5.95,66.17-19.24,135.38-18.17,202.11-36.06Z"/>
          <path class="cls-38" d="M133.28,579.99c14.78-3.8,29.7-7.07,44.55-10.65,57.41-13.84,113.23-32.17,168.74-50.4,11.98-3.94,24.08-7.92,35.01-12.91-45.7,9.81-89.66,28.44-135.33,35.37-17.94,2.72-35.68,3.54-53.64,7.41-26.63,5.74-50.41,17.4-75.28,26.81-16.79,6.36-34.43,11.78-52.33,16.12l1.95,8.05c6.68-2.28,13.28-4.62,19.16-6.37,15.63-4.67,31.29-9.34,47.16-13.41Z"/>
          <path class="cls-38" d="M409.94,591.5c16.94-6.05,33.89-12.11,50.51-18.52,3.46-1.34,7.45-3.14,7.69-5.04,.32-2.49-5.82-2.54-10.69-1.93-31.99,4.02-63.96,14.2-95.76,22.63-50.02,13.27-100.95,22.49-151.54,33.21-37.3,7.9-74.67,16.75-110.77,28.37-6.74,2.17-13.11,4.36-18.58,6.66l4.25,17.54c33.63-9.51,66.48-26.92,99.78-35.92,13.49-3.65,27.24-6.33,40.92-9,25.27-4.93,50.54-9.86,75.81-14.79,1.18,.93-1.77,2.57-4.21,3.48-19.66,7.32-40.5,13.3-61.5,17.65-28.06,5.81-58.34,9.33-82.41,20.98,5.29,.13,11.19-.87,16.93-1.85,36.68-6.3,73.56-12.64,109.92-21.83,44.48-11.24,87.23-26.5,129.65-41.65Z"/>
          <path class="cls-38" d="M489.34,882.07c-.32,2.49,5.82,2.54,10.69,1.93,31.99-4.02,63.96-14.2,95.76-22.63,50.02-13.27,100.95-22.49,151.54-33.21,37.3-7.9,74.67-16.75,110.77-28.37,6.74-2.17,13.11-4.36,18.58-6.66l-4.25-17.54c-33.63,9.51-66.48,26.92-99.78,35.92-13.49,3.65-27.24,6.33-40.92,9-25.27,4.93-50.54,9.86-75.81,14.79-1.18-.93,1.77-2.57,4.21-3.48,19.66-7.32,40.5-13.3,61.5-17.65,28.06-5.81,58.34-9.33,82.41-20.98-5.29-.13-11.19,.87-16.93,1.85-36.68,6.3-73.56,12.64-109.92,21.83-44.48,11.24-87.23,26.5-129.65,41.65-16.94,6.05-33.89,12.11-50.51,18.52-3.46,1.34-7.45,3.14-7.69,5.04Z"/>
          <path class="cls-38" d="M760.94,488.94c-12.84,7.63-29.21,13.2-45.13,18.55-9.46,3.18-20.87,6.55-28.33,4.7,19.93-7.56,39.85-15.12,59.78-22.68-.27-1.05-.53-2.11-.79-3.16-57.33,9.97-105.38,41.19-161.59,57.2,46.65-7.34,93.16-18.8,139.58-29.24,23.4-5.26,46.88-10.31,70.37-14.43,2.74-.48,6.38-.93,10.45-1.43l-6.99-28.85c-7.43,2.58-14.58,5.44-20.81,8.9-5.94,3.3-10.81,7.04-16.53,10.44Z"/>
          <path class="cls-38" d="M704.76,451.84c10.14-1.16,53.17-3.34,87.4-7.49l-4.58-18.88c-2.69,1.11-5.46,2.12-8.39,2.9-13.73,3.64-24.07,5.16-37.88,6.88q-13.39,1.68-38.37,7.41c-29.82,6.85-61.94,18.22-92.16,25.43,31.36-6.34,62.92-12.71,93.98-16.27Z"/>
          <path class="cls-38" d="M283.61,678.84c19.63-8.43,37.73-18.1,57.94-26.01,21.82-8.53,45.42-14.74,68.77-20.87,39.27-10.3,78.54-20.61,117.8-30.91,15.55-4.08,31.32-8.2,46.96-10.25,18.7-2.44,36.96-1.89,55.66-6.39,11.37-2.74,24.08-7.4,33.39-5.82-46.08,19.3-96.73,33.5-146.77,47.48-22.83,6.38-45.67,12.76-68.5,19.15,36.04-22.77,97.54-27.88,133.96-50.51-83.71,16.51-166.74,44.44-237.35,79.84,71.42-22.78,108.42-15.25,161.97-30.52,65.49-18.68,129.9-39.54,194.19-60.47,7.9-2.57,15.99-5.22,22.57-8.87,6.59-3.65,11.45-8.56,10.18-12.34-2.26-6.74-20.24-5.87-34.75-4-33.52,4.32-67.14,9.1-100.82,14.33-26.42,4.1-53.06,8.51-79.26,15.24-26.49,6.81-51.98,15.84-77.62,24.39-113.31,37.77-231.65,66.6-349.81,91.37l.14,.56,8.77-1.46c-2.9,.59-5.8,1.17-8.7,1.74l2.19,9.03c40.23-9.38,80.45-18.77,120.68-28.15-39.62,11.9-79.23,23.8-118.85,35.7l4.01,16.54c32.35-9.57,64.64-19.25,96.88-29.03,29.48-8.95,59.19-18.08,86.37-29.76Z"/>
          <path class="cls-38" d="M442.64,732.18c-47.07,14.81-97.38,23.94-144.25,26.18,20.2-9.71,45.79-9.34,69.3-13.92,20.56-4.01,39.89-12.01,59.97-17.94,24.93-7.37,50.8-11.48,76.31-16.79,112.04-23.32,219.63-70.22,330.66-90.17l-1.1-4.53c-57.02,17.05-117.2,24.75-175.74,38.28-80.78,18.68-158.6,48.54-239.71,64.2-25.66,4.95-51.38,8.43-76.94,14.3-32.3,7.42-63.31,18.41-94.64,28.36-43.23,13.72-87.39,25.54-131.75,36.78l.98,4.05c32.66-9.59,65.64-18.24,98.97-24.04,35.06-6.11,69.65-8.92,104.6-13.92,37.78-5.41,75.98-13.4,113.28-23.7,5.69-1.57,13.09-5.24,10.08-7.13Z"/>
          <path class="cls-38" d="M682.68,551.47c20.01-2.89,40.1-5.79,59.65-7.14,14.11-.98,27.93-1.16,42.33-3.01,8.6-1.11,19.46-2.83,29.75-5.14l-3.08-12.72c-5.71,1.56-11.44,3.07-17.22,4.26-12.48,2.56-24.89,3.52-37.38,5.77-8.63,1.55-17.21,3.71-25.75,5.85-16.1,4.04-32.2,8.09-48.3,12.13Z"/>
          <path class="cls-38" d="M183.87,729.77c17.49-6.21,35.7-11.35,53.84-16.47,32.49-9.17,64.98-18.34,97.47-27.51-78.1,14.74-154.8,38.48-232.53,56.69-.35,.08-.7,.16-1.05,.25l3.64,15c10.25-3.02,20.39-6.48,28.11-9.08,17.23-5.81,33.47-12.83,50.53-18.88Z"/>
          <path class="cls-38" d="M576.52,729.71c27.61-10.06,48.1-18.9,64.61-24.81,16.5-5.91,81.06-7.82,98.62-13.99,16.82-5.9,47.11-30.46,102.86-38.39l-2.83-11.69c-37.97,8.6-137.98,31.52-169.41,41.31-39.08,12.17-55.64,20.19-92.3,31.94-36.67,11.75-137.4,43.6-180.01,51.64-42.61,8.04-99.5,12.67-135.75,19.17-21.77,3.9-89.98,23.8-141.01,39.08l3.47,14.32c35.04-12.56,77.11-27.07,101.2-33.38,46.64-12.21,107.91-3.38,142.1-10.35,34.18-6.97,71.9-31.75,100.31-39.39,28.41-7.65,91.88-19.51,108.17-25.45Z"/>
          <path class="cls-38" d="M867.72,756.14l-2.64-10.91c-35.16,2.88-156.13,15.34-248.26,55.94-85.07,37.49-113.4,25.67-137.01,36.54-7.68,3.54-44.87,21.57-62.2,29.98-4.52,2.19-7.69,3.74-8.64,4.19-.19,.1-.29,.14-.29,.14l19-4.8,440.04-111.1Z"/>
        </g>
        <path class="cls-43" d="M880.26,807.87l-114.83,27.83c-95.76-297.75-256.71-399.7-349.26-434.42l345.27-83.68,118.82,490.26Z"/>
        <g>
          <path class="cls-44" d="M828.58,594.64c-56.12,15.42-220.3,59.82-425.39,108.99-132.14,31.69-216.36,48.89-263.75,57.74-12.41,2.32-23,4.2-31.94,5.72l.96,3.95c8.77-1.5,19.11-3.34,31.18-5.59,47.51-8.87,131.95-26.12,264.48-57.89,204.88-49.12,368.98-93.49,425.41-108.99l-.95-3.93Z"/>
          <path class="cls-44" d="M784.41,698.69c28.6-6.08,51.22-10.27,66.27-12.88l-.95-3.94c-15.14,2.63-37.62,6.8-65.92,12.82-50.3,10.7-129.84,29.62-223.08,58.96-78.14,24.59-141.98,41.98-255.37,63.43-62.82,11.88-116.55,23.49-175.78,41.07l.95,3.94c59.08-17.55,112.67-29.13,175.35-40.99,113.81-21.53,177.91-38.99,256.37-63.68,92.87-29.22,172.07-48.06,222.17-58.73Z"/>
          <path class="cls-44" d="M186.85,543.92c69.96-20.74,142.29-42.19,243.91-59.63,75.4-12.94,119.28-25.46,165.75-38.72,53.29-15.21,137.89-38.21,183.68-50.59l-1-4.11c-45.73,12.37-130.84,35.5-184.41,50.79-47.96,13.69-89.38,25.5-163.79,38.27-45.95,7.89-90.33,17.37-135.66,29-40.02,10.26-75.8,20.87-110.4,31.13l-2.69,.8c-34.68,10.28-86.82,24.2-121.51,33.31l.99,4.11c34.81-9.14,87.41-23.17,122.42-33.55l2.69-.8Z"/>
          <path class="cls-44" d="M530.64,575.6c82.86-22.94,220.91-51.85,277.93-63.51l-.83-3.43c-57.53,11.78-195.38,40.66-278.42,63.65-38.24,10.58-78.86,22.49-118.14,33.99-71.77,21.03-139.56,40.89-185.53,50.71-46.72,9.98-104.02,21.61-137.94,28.43l.83,3.43c34.03-6.85,91.01-18.41,137.53-28.35,46.53-9.94,114.59-29.88,186.65-50.99,39.23-11.49,79.8-23.38,117.92-33.93Z"/>
          <path class="cls-44" d="M696.09,597.29c-.81,.21-1.62,.43-2.45,.64,0,0,78.59-15.03,130.29-22.46l-3-12.36c-17.11,5.03-54.95,15.81-124.85,34.18Z"/>
          <path class="cls-44" d="M144.84,619.08s0,0,0,0c-4.07-.85-50.62,12.89-68.77,18.32l2.44,10.07c16.76-4.68,57.36-16.02,63.02-17.75,7.16-2.19,8.37-9.58,3.3-10.64Z"/>
          <path class="cls-44" d="M677.86,381.97s-.02,.05-.02,.08c0,0,0,0,0,.01,0,.03,0,.05,0,.08,.01,.05,.04,.11,.09,.15,.03,.03,.07,.06,.11,.08,.04,.03,.09,.05,.14,.07,5.83,3.07,73.41-13.15,94.59-18.07l-1.59-6.57c-21.66,4.74-91.86,20.36-93.33,24.15Z"/>
          <path class="cls-44" d="M263.63,879.84c5.98-2.02,6.56-7.97,2.87-10.46,0,0,0,0,0,0-.34-.23-.72-.43-1.13-.6-3.48-1.39-37.26,7.75-56.32,13.1-3.53,.99-5.63,4.64-4.75,8.25h0c.93,3.84,4.84,6.13,8.57,5.02,17.47-5.2,46.27-13.8,50.77-15.32Z"/>
          <path class="cls-44" d="M868.71,760.24l-.95-3.92c-63.45,16.16-257.23,65.4-440.09,110.92-6.25,1.56-12.49,3.11-18.7,4.65-99.21,24.66-193.73,47.83-260.67,63.55l.95,3.92c193.99-45.56,619.08-153.56,719.46-179.12Z"/>
        </g>
        <g>
          <path class="cls-35" d="M186.39,542.04c69.96-20.74,142.29-42.19,243.91-59.63,75.4-12.94,119.28-25.46,165.75-38.72,53.29-15.21,137.89-38.21,183.68-50.59l-1-4.11c-45.73,12.37-130.84,35.5-184.41,50.79-47.96,13.69-89.38,25.5-163.79,38.27-45.95,7.89-90.33,17.37-135.66,29-40.02,10.26-75.8,20.87-110.4,31.13l-2.69,.8c-34.68,10.28-86.82,24.2-121.51,33.31l.99,4.11c34.81-9.14,87.41-23.17,122.42-33.55l2.69-.8Z"/>
          <path class="cls-35" d="M530.19,573.72c82.86-22.94,220.91-51.85,277.93-63.51l-.83-3.43c-57.53,11.78-195.38,40.66-278.42,63.65-38.24,10.58-78.86,22.49-118.14,33.99-71.77,21.03-139.56,40.89-185.53,50.71-46.72,9.98-104.02,21.61-137.94,28.43l.83,3.43c34.03-6.85,91.01-18.41,137.53-28.35,46.53-9.94,114.59-29.88,186.65-50.99,39.23-11.49,79.8-23.38,117.92-33.93Z"/>
          <path class="cls-35" d="M696.09,597.29c-.81,.21-1.62,.43-2.45,.64,0,0,77.73-18.56,129.35-26.33l-2.78-11.45c-16.83,6.17-54.25,18.73-124.13,37.14Z"/>
          <path class="cls-35" d="M144.84,619.08s0,0,0,0c-.34-.14-.73-.26-1.16-.35-4.06-.85-50.09,11.41-68.18,16.31l2.39,9.87c16.76-4.68,57.36-16.02,63.02-17.75,6.55-2.01,7.67-6.52,3.92-8.07Z"/>
          <path class="cls-35" d="M770.6,355.41c-21.54,5.28-91.38,22.67-92.74,26.56,0,.03-.02,.05-.02,.08,0,0,0,0,0,.01,0,.03,0,.05,0,.08,.01,.05,.04,.11,.09,.15,.03,.03,.07,.06,.11,.08,.04,.03,.09,.05,.14,.07,5.56,2.26,72.97-14.99,94.01-20.47l-1.59-6.58Z"/>
          <path class="cls-35" d="M98.36,596.15l12.26-2.98,12.24-3.04c16.33-4.05,32.62-8.24,48.89-12.49,8.14-2.12,16.25-4.3,24.38-6.46l12.16-3.3,6.08-1.65,3.04-.82,3.04-.84,12.13-3.36,6.07-1.68,6.06-1.71,12.11-3.42,3.03-.86,3.02-.87,6.04-1.75,12.08-3.49,12.06-3.55,6.03-1.77,3.02-.89,3.01-.9,12.03-3.6,6.01-1.8,6-1.83,12-3.66,3-.91,2.99-.93,5.98-1.86,11.96-3.72c15.93-5,31.79-10.1,47.68-15.16l11.92-3.78c3.98-1.26,7.95-2.52,11.93-3.76l5.97-1.87c1.99-.62,3.98-1.25,5.98-1.86l11.98-3.67c15.98-4.87,32.07-9.55,48.26-13.97,2.02-.55,4.04-1.12,6.07-1.65l6.09-1.6,6.09-1.6c2.03-.52,4.07-1.02,6.11-1.53,4.07-1.01,8.14-2.05,12.23-2.99l6.13-1.44,3.06-.72c1.02-.24,2.05-.46,3.07-.69l6.14-1.36,3.07-.68c1.02-.23,2.04-.46,3.07-.67l12.3-2.54c8.2-1.65,16.41-3.16,24.62-4.64,8.21-1.48,16.43-2.89,24.65-4.33,8.22-1.44,16.45-2.88,24.69-4.4,2.06-.38,4.12-.76,6.18-1.15l3.09-.58,3.09-.6c2.06-.39,4.12-.81,6.18-1.22,2.06-.42,4.12-.81,6.18-1.25l6.18-1.29,6.17-1.33c2.06-.44,4.11-.9,6.16-1.35,2.05-.46,4.11-.91,6.16-1.38,16.42-3.73,32.77-7.75,49.06-11.93,10.31-2.65,20.59-5.35,30.86-8.09l-.1-.4-6.52,1.65c-8.15,2.06-16.3,4.1-24.45,6.12l-6.12,1.5c-2.04,.5-4.08,1-6.12,1.49l-6.13,1.48-6.13,1.46c-8.17,1.93-16.35,3.82-24.54,5.64-16.38,3.64-32.78,6.99-49.2,9.96-16.42,2.99-32.86,5.77-49.34,8.81-4.12,.75-8.23,1.55-12.35,2.34l-6.18,1.22c-2.06,.42-4.12,.83-6.18,1.27l-12.34,2.66c-1.03,.22-2.05,.46-3.08,.7l-3.08,.71-6.15,1.42c-1.02,.24-2.05,.47-3.07,.72l-3.07,.75-6.13,1.5c-4.1,.98-8.16,2.06-12.24,3.1-2.03,.53-4.08,1.04-6.11,1.57l-6.09,1.63-6.09,1.63c-1.02,.27-2.02,.55-3.04,.83l-3.04,.84c-8.11,2.21-16.16,4.53-24.22,6.85l-12.06,3.53-12.03,3.59c-8.01,2.42-16.01,4.84-24,7.29-4,1.22-7.99,2.46-11.98,3.69l-11.97,3.71c-15.95,4.95-31.89,9.92-47.85,14.83l-11.98,3.66-5.99,1.83-2.99,.92-3,.9-12,3.62-6,1.81-6.01,1.78-12.03,3.57-3.01,.89-3.01,.88-6.03,1.76-12.06,3.51-12.08,3.45c-16.11,4.62-32.25,9.14-48.41,13.61-50.47,13.96-101.24,27.14-152.21,39.63l.16,.65,5.98-1.42,12.27-2.91,3.07-.73,3.06-.74,6.13-1.49Z"/>
          <path class="cls-35" d="M510.93,821.66c7.99-2.49,15.96-5.04,23.91-7.61,7.95-2.58,15.88-5.18,23.81-7.79,15.85-5.24,31.66-10.56,47.45-15.92l47.35-16.09,47.31-16.16,11.82-4.04c1.97-.68,3.95-1.32,5.92-1.99l2.96-.99c.98-.33,1.97-.66,2.96-.98,3.97-1.27,7.92-2.58,11.91-3.79l2.99-.93c.99-.31,1.99-.63,2.99-.92l6-1.8c2-.61,4.01-1.18,6.02-1.76l3.01-.87c1-.29,2.01-.58,3.02-.85l6.05-1.67c2.02-.56,4.04-1.08,6.06-1.62l3.03-.81c1.01-.27,2.03-.52,3.04-.78l6.09-1.56,6.1-1.5,1.53-.38,1.53-.36,3.06-.72c8.16-1.92,16.33-3.76,24.53-5.44,8.2-1.69,16.42-3.28,24.64-4.74,4.1-.73,8.21-1.43,12.32-2.1l-.19-.76c-4.06,.61-8.12,1.25-12.18,1.93-8.26,1.37-16.51,2.88-24.75,4.52-8.24,1.63-16.46,3.4-24.66,5.29l-3.08,.71-1.54,.35-1.54,.37-6.14,1.48-6.12,1.53c-1.02,.26-2.04,.51-3.06,.77l-3.05,.8c-2.03,.54-4.07,1.06-6.1,1.62l-6.08,1.67c-1.02,.28-2.03,.56-3.04,.85l-3.03,.86c-2.02,.58-4.04,1.14-6.06,1.75l-6.04,1.79c-2.01,.6-4.01,1.23-6.01,1.85-4.01,1.23-7.99,2.54-11.97,3.83-1,.32-1.99,.65-2.98,.99l-2.97,1c-1.98,.67-3.96,1.33-5.93,2.02l-11.8,4.1c-31.43,10.98-62.69,22.25-94.21,33.04-15.76,5.4-31.57,10.71-47.44,15.89l-11.92,3.86c-3.98,1.26-7.96,2.54-11.95,3.79-7.98,2.5-15.96,4.98-23.97,7.41-16.01,4.85-32.11,9.52-48.27,13.96-16.16,4.42-32.41,8.59-48.73,12.34-2.04,.48-4.09,.93-6.13,1.38-2.04,.45-4.09,.91-6.13,1.34l-6.14,1.27c-1.03,.21-2.05,.43-3.07,.63l-3.08,.59c-2.05,.39-4.1,.8-6.15,1.18l-6.16,1.12c-2.05,.38-4.11,.73-6.16,1.08-2.06,.35-4.11,.72-6.17,1.05l-6.17,1.01-6.17,.98-3.09,.49-3.09,.47c-2.06,.31-4.11,.63-6.17,.93-8.23,1.23-16.46,2.36-24.69,3.51-15.56,2.17-31.14,4.25-46.74,6.7-.19-1.41-.96-2.71-2.26-3.59,0,0,0,0,0,0-.34-.23-.72-.43-1.13-.6-3.48-1.39-37.26,7.75-56.32,13.1-2.09,.59-3.67,2.1-4.44,3.99-.12,.03-.24,.06-.36,.09l-6.11,1.59-1.53,.4-1.52,.42-3.04,.83c-4.07,1.09-8.09,2.28-12.13,3.44-2.01,.59-4.02,1.21-6.02,1.82l-3.01,.91c-1,.3-2,.63-2.99,.94l-5.99,1.9c-1.99,.64-3.97,1.31-5.95,1.97l-2.97,.99-1.49,.5-1.48,.51-5.9,2.05c-.98,.35-1.97,.68-2.95,1.03l-.15,.05,.12,.51,.29-.1c.99-.34,1.98-.66,2.96-.99l5.93-1.97,1.48-.49,1.49-.48,2.99-.95,2.98-.95c1-.32,1.98-.64,2.99-.94l5.99-1.83c1-.3,1.99-.62,3-.91l3.01-.88c2.01-.58,4.01-1.18,6.03-1.75,4.03-1.11,8.06-2.27,12.11-3.31l3.03-.8,1.52-.4,1.53-.38,5.73-1.43c-.16,.92-.14,1.89,.09,2.86h0c.93,3.84,4.84,6.13,8.57,5.02,17.47-5.2,46.27-13.8,50.77-15.32,3.02-1.02,4.67-3.05,5.07-5.13,7.33-1.11,14.66-2.16,21.99-3.18,8.23-1.14,16.47-2.24,24.71-3.36,16.49-2.26,33.01-4.64,49.53-7.46,2.06-.34,4.13-.72,6.2-1.08,2.06-.36,4.13-.72,6.19-1.11l6.19-1.14c2.06-.39,4.13-.81,6.19-1.21l3.09-.61c1.03-.21,2.06-.43,3.09-.65l6.18-1.3c2.05-.45,4.11-.91,6.16-1.37,2.06-.46,4.11-.91,6.16-1.4,16.4-3.83,32.69-8.07,48.86-12.62,16.17-4.56,32.22-9.41,48.19-14.4Z"/>
          <path class="cls-35" d="M828.05,592.44c-56.12,15.42-220.3,59.82-425.39,108.99-132.14,31.69-216.36,48.89-263.75,57.74-12.41,2.32-23,4.2-31.94,5.72l.96,3.95c8.77-1.5,19.11-3.34,31.18-5.59,47.51-8.87,131.95-26.12,264.48-57.89,204.88-49.12,368.98-93.49,425.41-108.99l-.95-3.93Z"/>
          <path class="cls-35" d="M783.88,696.48c28.6-6.08,51.22-10.27,66.27-12.88l-.95-3.94c-15.14,2.63-37.62,6.8-65.92,12.82-50.3,10.7-129.84,29.62-223.08,58.96-78.14,24.59-141.98,41.98-255.37,63.43-62.82,11.88-116.55,23.49-175.78,41.07l.95,3.94c59.08-17.55,112.67-29.13,175.35-40.99,113.81-21.53,177.91-38.99,256.37-63.68,92.87-29.22,172.07-48.06,222.17-58.73Z"/>
          <path class="cls-35" d="M868.25,758.31l-.95-3.92c-64.56,16.44-264.06,67.14-449.68,113.31-102.51,25.5-200.79,49.61-269.78,65.82l.95,3.92c193.99-45.56,619.08-153.56,719.46-179.12Z"/>
        </g>
      </g>
    </g>
    <text class="cls-62" transform="translate(133.49 753.05) rotate(-13.46)"><tspan class="cls-36"><tspan x="0" y="0">CSS Zen Garden</tspan></tspan><tspan class="cls-22"><tspan x="70.81" y="66.63">The Beauty of CSS Design</tspan></tspan></text>
    <ellipse class="cls-7" cx="123.46" cy="676.57" rx="12.15" ry="12.28" transform="translate(-65.27 15.23) rotate(-5.59)"/>
    <ellipse class="cls-9" cx="785.24" cy="546.66" rx="12.15" ry="12.28" transform="translate(-49.48 79.03) rotate(-5.59)"/>
  </g>
</svg>