<?xml version="1.0" encoding="UTF-8"?>
<svg id="Layer_2" data-name="Layer 2" xmlns="http://www.w3.org/2000/svg" viewBox="0 0 1753.99 562.91">
  <defs>
    <style>
      .cls-1 {
        fill: #1b1464;
      }
    </style>
  </defs>
  <g id="Layer_1-2" data-name="Layer 1">
    <g>
      <path class="cls-1" opacity='.3' d="M51.11,479.69c.48,4.62,1.14,9.23,1.41,13.86,1.18,19.68,2.48,39.37,3.23,59.07,.26,6.79,2.41,9.9,9.59,9.76,10.23-.2,20.48,.8,30.7,.48,18.27-.57,24.9-5.64,28.87-23.73,3.75-17.08,6.14-34.46,9.03-51.72,1.44-8.59,5.62-11.5,14.48-8.94,23.88,6.89,48.27,12.16,71.85,19.93,78.88,25.98,159.4,37.98,242.69,37.17,170.11-1.65,340.24-1.41,510.36-.88,166.41,.52,332.82,2.87,499.23,3.38,59.3,.18,118.39-4.83,176.3-18.97,28.67-7,56.26-15.97,76.71-39.36,35.5-40.61,48.76-111.78-26.59-145.88-25.69-11.63-53.63-19.64-81.36-25.2-69.95-14.03-141.1-13.27-212.1-12.99-30.8,.12-29.62,.06-28.68-31.14,1.04-34.61-.34-69.3-.7-103.95-.11-10.84-4.84-17.92-16.13-19.82-10.03-1.69-16.87-6.39-14.93-17.57-13.29-5.72-16.82,1.51-17.41,12.85-3.85-.57-6.83-1.01-10.4-1.53,1.11-19.61,2.67-38.18,3.08-56.76,.48-21.52,.34-43.07-.37-64.58-.24-7.33-2.64-14.97-14.65-12.77,0,4.19,0,8.48,0,12.78,0,37.28,.09,74.56-.16,111.83-.02,3.51-1.79,9.78-3.43,10.02-7.12,1.03-14.89,1.55-21.56-.51-2.26-.7-2.7-9.56-2.75-14.7-.26-25.86-.12-51.72-.12-77.42-8.21-2.88-12.11-1.63-11.94,7.02,.31,15.34,.08,30.7,.07,46.05,0,13.07,0,26.14,0,42-18.92,0-36.39,.4-53.83-.18-7.97-.27-10.7,2.65-11.98,10.22-5.68,33.49-12.56,66.79-17.68,100.37-1.87,12.24-6.99,17.52-18.9,17.09-2.18-.08-4.38,.4-6.57,.39-45.69-.34-91.38-.98-137.07-1.02-136.1-.14-272.21-.4-408.31,.27-24.7,.12-49.63,3.09-74.01,7.27-23.21,3.98-41.45,17.24-54.38,37.61-2.43,3.83-8.23,7.18-12.82,7.71-25.42,2.95-50.98,4.78-76.45,7.34-70.88,7.11-142.4,9.57-211.51,29.52-14.31,4.13-29.05,6.74-44.38,10.23-1.39-4.4-2.66-7.74-3.5-11.19-5.04-20.57-10.44-41.07-14.76-61.79-2.06-9.87-7.11-14.82-16.8-15.12-11.31-.35-22.64-.04-33.94-.5-9.25-.38-12.49,3.25-12.9,12.74-1.17,27.06-3.49,54.08-5.38,81.4-1.96-10.5-3.81-20.37-5.65-30.25-1.48-.13-2.96-.25-4.44-.38-2.45,3.75-6.68,7.34-7.01,11.27-.94,11.11-1.58,22.57,.18,33.48,1.34,8.34,.03,12.91-7.52,16.49-6.25,2.97-12.12,6.79-17.9,10.63-10.41,6.92-10.59,13.41-.2,19.84,6.49,4.01,13.4,7.7,20.6,10.11,6.45,2.15,7.45,5.36,6.3,11.38-1.57,8.24-2.79,16.63-3.1,25-.28,7.46-3.78,18.37,7.93,19.38,11.83,1.03,8.07-10.37,11.67-17.08Z"/>
      <path class="cls-1" opacity='.3' d="M51.11,479.69c-3.6,6.71,.17,18.11-11.67,17.08-11.71-1.02-8.21-11.93-7.93-19.38,.31-8.37,1.52-16.76,3.1-25,1.15-6.03,.15-9.23-6.3-11.38-7.2-2.4-14.11-6.09-20.6-10.11-10.39-6.43-10.21-12.92,.2-19.84,5.78-3.84,11.66-7.66,17.9-10.63,7.55-3.59,8.86-8.15,7.52-16.49-1.76-10.91-1.11-22.37-.18-33.48,.33-3.92,4.56-7.52,7.01-11.27,1.48,.13,2.96,.25,4.44,.38,1.85,9.88,3.69,19.75,5.65,30.25,1.89-27.32,4.22-54.34,5.38-81.4,.41-9.49,3.65-13.12,12.9-12.74,11.3,.46,22.63,.15,33.94,.5,9.69,.3,14.74,5.25,16.8,15.12,4.32,20.72,9.72,41.22,14.76,61.79,.84,3.45,2.11,6.79,3.5,11.19,15.33-3.49,30.07-6.1,44.38-10.23,69.12-19.95,140.63-22.42,211.51-29.52,25.47-2.55,51.03-4.38,76.45-7.34,4.6-.53,10.39-3.88,12.82-7.71,12.92-20.37,31.17-33.63,54.38-37.61,24.39-4.18,49.31-7.15,74.01-7.27,136.1-.68,272.21-.41,408.31-.27,45.69,.05,91.38,.69,137.07,1.02,2.19,.02,4.39-.47,6.57-.39,11.92,.43,17.03-4.84,18.9-17.09,5.12-33.57,12-66.87,17.68-100.37,1.28-7.57,4.01-10.49,11.98-10.22,17.44,.58,34.91,.18,53.83,.18,0-15.86,0-28.93,0-42,0-15.35,.24-30.7-.07-46.05-.18-8.65,3.73-9.9,11.94-7.02,0,25.7-.14,51.56,.12,77.42,.05,5.14,.49,14.01,2.75,14.7,6.67,2.06,14.44,1.54,21.56,.51,1.64-.24,3.41-6.51,3.43-10.02,.25-37.28,.16-74.55,.16-111.83,0-4.3,0-8.59,0-12.78,12.01-2.2,14.41,5.44,14.65,12.77,.71,21.51,.85,43.07,.37,64.58-.41,18.59-1.97,37.15-3.08,56.76,3.58,.53,6.56,.97,10.4,1.53,.59-11.34,4.13-18.57,17.41-12.85-1.94,11.18,4.9,15.89,14.93,17.57,11.29,1.9,16.02,8.98,16.13,19.82,.36,34.65,1.74,69.34,.7,103.95-.94,31.2-2.11,31.26,28.68,31.14,71-.28,142.15-1.03,212.1,12.99,27.73,5.56,55.67,13.57,81.36,25.2,75.35,34.1,62.09,105.27,26.59,145.88-20.45,23.39-48.04,32.37-76.71,39.36-57.91,14.13-117,19.15-176.3,18.97-166.41-.52-332.82-2.86-499.23-3.38-170.12-.53-340.26-.78-510.36,.88-83.28,.81-163.81-11.19-242.69-37.17-23.58-7.77-47.97-13.03-71.85-19.93-8.86-2.56-13.03,.35-14.48,8.94-2.89,17.26-5.28,34.64-9.03,51.72-3.98,18.09-10.6,23.16-28.87,23.73-10.22,.32-20.47-.68-30.7-.48-7.18,.14-9.33-2.96-9.59-9.76-.75-19.7-2.05-39.38-3.23-59.07-.28-4.63-.93-9.24-1.41-13.86Z"/>
    </g>
  </g>
</svg>