<?xml version="1.0" encoding="UTF-8"?>
<!DOCTYPE svg PUBLIC "-//W3C//DTD SVG 1.1//EN" "http://www.w3.org/Graphics/SVG/1.1/DTD/svg11.dtd">
<!-- Creator: CorelDRAW 2020 (64-Bit Not for commercial use) -->
<svg xmlns="http://www.w3.org/2000/svg" xml:space="preserve" width="10in" height="10in" version="1.1" style="shape-rendering:geometricPrecision; text-rendering:geometricPrecision; image-rendering:optimizeQuality; fill-rule:evenodd; clip-rule:evenodd"
viewBox="0 0 10000 10000"
 xmlns:xlink="http://www.w3.org/1999/xlink"
 xmlns:xodm="http://www.corel.com/coreldraw/odm/2003">
 <defs>
  <style type="text/css">
   <![CDATA[
    .fil0 {fill:#1B1464;fill-rule:nonzero;fill-opacity:0.301961}
   ]]>
  </style>
 </defs>
 <g id="Layer_x0020_1">
  <metadata id="CorelCorpID_0Corel-Layer"/>
  <g id="fish_x0020_4.svg">
   <g id="Layer_1-2" data-name="Layer 1">
    <path class="fil0" d="M9720.57 5236.06c44.28,-24.57 88.83,-44.82 127.97,-72.63 29.97,-21.33 57.24,-49.95 77.76,-80.46 32.13,-48.33 12.15,-92.07 -44.28,-104.48 -25.92,-5.67 -53.46,-6.75 -80.19,-5.4 -187.91,9.72 -375.56,6.21 -562.66,-14.58 -308.87,-34.29 -604.51,-111.78 -870.72,-278.36 -345.86,-216.26 -552.67,-531.07 -646.63,-923.91 -14.85,-61.83 -24.3,-124.74 -35.1,-187.37 -28.08,-162 -109.62,-295.91 -219.24,-414.44 -36.45,-39.42 -76.14,-76.68 -116.91,-111.77 -24.3,-21.06 -42.11,-44.01 -55.08,-73.71 -194.67,-445.22 -491.65,-811.87 -866.13,-1117.23 -428.48,-349.64 -917.97,-581.83 -1445,-739.51 -336.68,-100.7 -680.38,-166.85 -1029.21,-208.16 -313.45,-37.26 -627.72,-55.63 -943.07,-55.08 -153.36,0 -306.44,11.34 -453.32,61.83 -32.4,11.07 -64.53,24.84 -94.77,41.31 -135.8,73.98 -186.56,193.85 -146.87,343.7 31.59,119.07 94.5,222.2 170.63,316.97 237.86,296.18 526.48,530.8 867.75,698.47 48.87,24.03 102.06,39.69 154.7,59.94 -7.02,5.67 -14.04,11.34 -21.33,17.01 -147.96,115.28 -217.34,269.45 -222.74,454.4 -4.32,143.91 32.94,279.44 87.48,411.2 5.67,13.77 12.96,25.11 -1.89,40.23 -176.3,180.89 -300.5,395.81 -407.96,622.06 -54.54,115.02 -109.61,229.49 -168.74,342.35 -154.98,296.72 -397.43,494.35 -699.82,631.24 -110.43,49.95 -209.78,45.36 -316.16,7.56 -134.46,-47.79 -254.6,-121.77 -369.62,-204.93 -220.58,-159.56 -420.65,-341.27 -586.69,-558.07 -54,-70.46 -101.52,-144.44 -122.3,-233 -9.18,-38.88 -37.53,-53.73 -74.25,-36.99 -31.86,14.31 -63.17,33.75 -88.83,57.51 -114.2,105.83 -191.96,237.86 -258.11,376.91 -134.45,282.14 -195.2,579.13 -192.5,892.86 1.89,213.3 20.79,422 83.7,625.84 68.31,221.39 163.88,429.29 317.51,605.86 32.67,37.8 72.9,71.01 114.74,98 53.73,34.83 82.62,15.12 105.03,-44.82 22.68,-61.02 50.49,-122.04 87.75,-174.96 156.32,-223.28 355.85,-404.44 572.11,-567.79 115.56,-87.2 236.51,-166.85 372.32,-219.77 48.87,-18.9 101.25,-28.62 151.74,-44.01 24.3,-7.29 43.47,-1.89 61.56,14.85 86.67,80.73 173.6,161.19 262.16,243.26 -70.2,71.82 -124.19,145.53 -162.54,229.76 -14.58,32.4 -31.31,64.8 -39.42,98.82 -11.61,50.76 -40.77,88.02 -73.98,125.81 -137.16,156.06 -261.89,321.02 -355.04,507.85 -36.99,74.52 -65.88,152 -77.22,235.44 -17.55,129.59 38.07,230.3 159.57,278.36 113.94,45.09 233.81,47.25 354.23,42.39 497.87,-19.98 924.99,-214.65 1303.79,-528.65 24.57,-20.52 24.57,-20.52 48.33,-5.4 -194.13,268.1 -466.81,433.07 -751.66,589.12 63.18,-7.56 126.9,-11.61 189.54,-23.22 264.86,-48.6 504.07,-161.19 731.94,-300.77 45.09,-27.54 88.56,-57.51 134.73,-83.96 -96.39,169.82 -247.31,283.76 -404.98,391.22 151.73,-46.98 298.88,-104.49 439.81,-176.85 68.04,-35.1 133.37,-75.06 200.87,-111.24 11.34,-5.94 29.16,-8.37 40.77,-4.05 278.09,110.16 564.28,189 860.73,228.69 224.36,29.97 449.27,37.53 674.98,18.9 6.21,-0.54 12.69,0 24.03,0 -11.34,19.98 -21.06,37.53 -31.59,54.81 -142.28,231.11 -326.96,425.5 -527.83,605.32 -161.72,144.71 -333.44,276.74 -512.17,404.44 63.18,-13.77 126.63,-25.65 189.26,-41.85 287.81,-75.06 550.78,-205.74 801.07,-363.68 238.67,-150.93 461.15,-322.91 666.34,-517.3 2.16,-2.16 5.13,-3.51 10.53,-2.97 -123.39,310.76 -351.53,539.17 -593.71,758.68 81.81,-42.66 164.43,-83.97 245.42,-128.24 352.07,-192.23 681.46,-416.06 964.95,-702.25 190.34,-192.23 355.58,-403.64 460.87,-655 28.08,-66.96 68.04,-116.91 120.96,-165.23 58.59,-53.19 121.22,-79.11 198.17,-93.42 811.32,-152.54 1548.13,-472.49 2196.92,-986.82 28.62,-22.68 56.43,-46.98 83.7,-71.28 31.31,-28.08 29.7,-51.3 -5.4,-75.33 -13.23,-9.18 -27.54,-16.2 -41.31,-24.03l0.53 -0.01z"/>
   </g>
  </g>
 </g>
</svg>
